<?xml version="1.0" encoding="utf-8"?>
<!-- Generator: Adobe Illustrator 22.0.1, SVG Export Plug-In . SVG Version: 6.00 Build 0)  -->
<svg version="1.1" id="Layer_1" xmlns="http://www.w3.org/2000/svg" xmlns:xlink="http://www.w3.org/1999/xlink" x="0px" y="0px"
	 viewBox="0 0 1067 1100" style="enable-background:new 0 0 1067 1100;" xml:space="preserve">
<style type="text/css">
	.st0{fill:#70BFEF;}
</style>
<path class="st0" d="M1046.4,306.2c-0.2-0.2-3.4-4.5-13.8-11.6l-12.9-9.4l-3.1-0.3l-0.3-0.2l-0.2,0.1l-13.3-5.1l-14.1-5.9l0,0
	l-1.2-0.5l-0.4-0.2l0,0l-10.6-4.1l0.3-0.1l-2.3-0.7l-0.2-0.1l0,0l-14.7-4.4l-4,0.7l-0.4-0.2l0,0l-19.9-8l-20.9-8.8l0-0.1l-0.9-0.3
	l-0.6-0.2l0,0l-23.6-8l-22.8-10.3l0,0l-0.8-0.3l-0.6-0.3l0,0l-17.8-7.4l0.1-0.1l-0.9-0.2l-0.6-0.2l0,0.1l-17.4-4.3l0-0.1l-1-0.2
	l-0.6-0.1l0,0l-18.5-3.5l0.1-0.2l-1.1,0l-0.5-0.1l0,0.1l-15.4,0L780,210l-14.9-3.5l-17.1-4.5l0,0l-0.8-0.2l-0.7-0.2l0,0l-19-4.2
	l-17.7-10.1l-14.1-8.8l0.1-0.2l-0.7-0.2l-0.7-0.5l-0.1,0.2l-19.7-5.6l0-0.1l-0.8-0.1l-0.7-0.2l0,0.1l-14.1-1.8v0l-0.7-0.1l-0.8-0.1
	v0l-13.5-1.7l-23.3-3.2l0.1-0.2l-1.3,0.1l-0.4-0.1l0,0.1l-14.8,0.8l-14.7-3.7l-13.1-12.6l0.2-0.2L576,149l-4.6-17.9l0.2-1.6l0.8-2
	l-0.3,0.2l0.4-1.5l1-2.2l1.8-3.8l0.1-0.2l0-0.1l2.4-9.6l0.1-0.3l0.8-2.6l2.7-4.2l2.7-1.9l-0.3-0.6l0.6,0.1l1.3-4.8l0.8-4.3l0,0
	l1.5-8.1h0l1.3-7.7l0-0.1l-0.3-9.2h0c0-0.2-0.1-0.3-0.2-0.5l-2.8-3.4l0.5-12.3l0,0l0-0.2l0,0l0,0l0,0l0.1-2.7l-0.3,0.5l-1.3-14.2
	l0.1-0.2l-0.5-0.8l-0.4-0.9l-0.1,0l-6.5-11.7l0.1-0.2l-0.3-0.3l-0.7-1.2l-0.2,0.5l-10.5-9.2l0.1-0.2l-0.6-0.2L564.6,9l-0.1,0.3
	L551,3.4l0-0.2l-0.7-0.1l-0.8-0.3l0,0.2l-15.3-2.7V0l-0.8,0.1L532.8,0v0.2L517.4,3l0-0.2l-0.8,0.3l-0.7,0.1l0,0.2l-13.5,5.9L502.4,9
	l-0.7,0.6l-0.6,0.2l0.1,0.2l-10.5,9.2l-0.2-0.5l-0.7,1.2l-0.3,0.3l0.1,0.2L483,32.2l-0.1,0l-0.4,0.9l-0.5,0.8l0.1,0.2l-1.3,14.2
	l-0.3-0.5l0.1,2.7l0,0l0,0l0,0l0,0.2l0,0l0.5,12.3l-2.8,3.4c-0.1,0.1-0.2,0.3-0.2,0.5h0l-0.3,9.2l0,0.1l1.3,7.7h0l1.5,8.1h0h0
	l0.8,4.3l1.3,4.8l0.6-0.1l-0.3,0.6l2.7,1.9l2.7,4.2l0.8,2.6l0.1,0.3l2.4,9.6l0,0.1l0.1,0.2l1.8,3.8l1,2.2l0.4,1.5l-0.3-0.2l0.8,2
	l0.2,1.6L491,149l-0.5,0.2l0.2,0.2l-13.1,12.6l-14.7,3.7l-14.8-0.8l0-0.1l-0.4,0.1l-1.3-0.1l0.1,0.2l-23.3,3.2l-13.5,1.7l0,0
	l-0.8,0.1l-0.7,0.1l0,0L394,172l0-0.1l-0.7,0.2l-0.8,0.1l0,0.1l-19.7,5.6l-0.1-0.2l-0.7,0.5l-0.7,0.2l0.1,0.2l-14.1,8.8l-17.7,10.1
	l-19,4.2l0,0l-0.7,0.2l-0.8,0.2l0,0l-17.1,4.5L287,210l-11.4,1.6l-15.4,0l0-0.1l-0.5,0.1l-1.1,0l0.1,0.2l-18.5,3.5l0,0l-0.6,0.1
	l-1,0.2l0,0.1l-17.4,4.3l0-0.1l-0.6,0.2l-0.9,0.2l0.1,0.1l-17.8,7.4l0,0l-0.6,0.3l-0.8,0.3l0,0l-22.8,10.3l-23.6,8l0,0l-0.6,0.2
	l-0.9,0.3l0,0.1l-20.9,8.8l-19.9,8l0,0l-0.4,0.2l-4-0.7L92.7,268l0,0l-0.2,0.1l-2.3,0.7l0.3,0.1L79.8,273l0,0l-0.4,0.2l-1.2,0.5l0,0
	l-14.1,5.9l-13.3,5.1l-0.2-0.1l-0.3,0.2l-3.1,0.3l-12.9,9.4c-10.5,7.2-13.6,11.4-13.8,11.6c-0.6,0.6-16,16.9-19.7,28.1
	c-1.2,3.8-1.2,6.1,0.2,7.2c0.6,0.4,1.2,0.6,2,0.6c2.1,0,4.6-1.4,4.9-1.6l0.2-0.2l5.6-8l-1.1,2.7l0,0.2c0,0.2,0.2,4,2.9,5.1
	c2.2,1,5.4-0.2,9.4-3.5c1-0.9,2.9-3.8,5.5-7.8c1.1-1.8,2.2-3.4,2.7-4.1c1.1-1.4,7.9-7.6,11.4-10.8l1.6-1l10.3-3.4l2.1-0.3l0.2,0l0,0
	l9.8-1.4l1.1,0.3l-0.9,1.8c-2.3,1.7-6.5,5-8,6.7c-2.2,2.4-5.9,8.4-6.3,11.8c-0.2,2.1,1.8,7.3,2,7.9l0.1,0.2c0,0.1,1.2,1.7,3.7,1.7h0
	c2.1,0,4.5-1.1,7.1-3.3c6.2-5.1,12.7-13.3,13.4-14.3l6.4-4l0.1-0.1l0,0l3-2.8l0,0.1l1.1-1.1l0.3-0.2l0-0.1l7.5-7.9l0,0.1l1-1.2
	l0.3-0.3l0,0l7.2-8.1l3.6-1.7l2.9-0.8l21.9-1.4l25.9-1.7l0,0l1-0.1l0.6,0l0,0l25.4-2.6l25.9-2.4l0,0.2l1.2-0.3l0.5,0l0-0.1l19.3-5.3
	l0,0.1l1.1-0.4l0.5-0.1l0,0l17.3-5.9l0,0.1l1.1-0.5l0.5-0.2l0,0l14.6-6.2l0,0.2l1.3-0.7l0.4-0.2l0-0.1l12.6-7.1l11.8,0.2l14.5,0.9
	l0,0l0.6,0l1,0.1l0,0l17.1,0.3l0,0.1l0.8-0.1l0.8,0l0-0.1l18.9-2.5l0,0.1l0.9-0.2l0.6-0.1v0l18.2-3.6l0,0.1l1.2-0.4l0.5-0.1l0-0.1
	l13.7-4.2l15-0.5l14.3,7.3l3.9,9.5l2.6,14.8l1.7,28.7l-0.1,0l0.1,0.7l0,0.8l0.1,0l5.9,34.3l-0.1,0l0.2,0.8l0.1,0.7l0.1,0l7.9,30.9
	l2.7,38.7l-7.8,35.8l-0.3-0.2l0.1,1.3l-0.1,0.5l0.1,0.1l1.6,28.6l-3.1,23l0,0l0,0.1v0l-3.8,28.9l-8.6,34.5l0,0l-0.2,0.9l-0.3,0.6
	l0.1,0.1l-8.7,42.3l-0.2-0.1l0,1.1l-0.1,0.5l0.1,0l-1.5,44.7l-0.1-0.1l0.1,1.3l0,0.4l0,0l1.9,41l-0.2-0.1l0.3,1.5l0,0.4l0.1,0
	l6.6,34.1l-7.5,24.5l-0.2-0.2l-0.1,1.2l-0.1,0.5l0.1,0.1l-2.3,29.7l-13.1,26.4l-0.2-0.1l-0.1,0.8L392,820l0.2,0.1l-4.8,33.1l-0.2,0
	l0.1,0.8l-0.1,0.7l0.1,0l2.4,38l-0.1,0l0.2,1l0,0.6l0.1,0l6.4,38.5l4.7,43.9l-3.2,25.7l-0.1,0l-0.1,1l-0.1,0.6l0,0l-1.6,22.5
	l-2.9,16.7l-1,1.2l-26.5,31.4c0,0,0,0,0,0s0,0,0,0c-3.9,5.5-5,12.2-2.7,16.9c1.7,3.5,5.2,5.4,9.9,5.5c3.1,0,6.2,0.5,9.2,0.9
	c2.7,0.4,5.4,0.8,8.2,0.9c0,0,0.1,0,0.1,0c0,0,0.1,0,0.1,0c0.1,0,0.1,0,0.2,0c0.3,0,0.7,0,1,0c0.1,0,0.2,0,0.3,0c1.8,0,3.6,0,5.4,0
	c3.6,0,7.3,0,10.9-0.2c0.1,0.1,0.3,0.2,0.4,0.2c0,0,0,0,0.1,0c0.2,0,0.4-0.1,0.5-0.2c3.3-0.2,6.6-0.4,9.8-1c1.2-0.2,2.8-0.3,4.5-0.5
	c6-0.5,14.3-1.2,17.1-5.7c1.9-3,1.6-8.2,1.4-12.4c0-0.8-0.1-1.6-0.1-2.3l3.3-11.6l0.3-20.4l0.1,0l0-0.5l5.2-17.3l0.3-0.1l-4.9-24.7
	l1.1-26.4l7.6-44.7h0l6.3-37.5l8.3-39.3l0.1,0l0.1-0.5l0.2-1.1l-0.1,0l2.8-27.9l0,0l0-0.4l0.1-1.3l-0.1,0l1.7-27.7l12.1-30.2l0.1,0
	l0.1-0.3l0.6-1.6l-0.3,0.1l5.3-25.6l10.6-33.5l0,0l0.1-0.4l0.4-1.3l-0.1,0l9.5-35.5l0,0l0.1-0.5l0.3-1.2l-0.1,0l7.3-35.8l0.1,0
	l0.1-0.6l0.2-1l-0.1,0l2.3-24.4l10.6-0.7l10.6,0.7l2.3,24.4l-0.1,0l0.2,1l0.1,0.6l0.1,0l7.3,35.8l-0.1,0l0.3,1.2l0.1,0.5l0,0
	l9.5,35.5l-0.1,0l0.4,1.3l0.1,0.4l0,0l10.6,33.5l5.3,25.6l-0.3-0.1l0.6,1.6l0.1,0.3l0.1,0l12.1,30.2l1.7,27.7l-0.1,0l0.1,1.3l0,0.4
	l0,0l2.8,27.9l-0.1,0l0.2,1.1l0.1,0.5l0.1,0l8.3,39.3l6.3,37.5h0l7.6,44.7l1.1,26.4l-4.9,24.7l0.3,0.1l5.2,17.3l0,0.5l0.1,0
	l0.3,20.4l3.3,11.6c0,0.7-0.1,1.4-0.1,2.3c-0.2,4.2-0.5,9.4,1.4,12.4c2.8,4.5,11.1,5.2,17.1,5.7c1.7,0.1,3.3,0.3,4.5,0.5
	c3.2,0.5,6.5,0.8,9.8,1c0.1,0.1,0.3,0.2,0.5,0.2c0,0,0,0,0.1,0c0.2,0,0.3-0.1,0.4-0.2c3.7,0.2,7.3,0.2,10.9,0.2c1.8,0,3.6,0,5.4,0
	c0.1,0,0.2,0,0.3,0c0.3,0,0.7,0,1,0c0.1,0,0.1,0,0.2,0c0,0,0.1,0,0.1,0c0,0,0.1,0,0.1,0c2.7-0.1,5.5-0.5,8.2-0.9
	c3-0.4,6.1-0.9,9.2-0.9c4.6-0.1,8.1-2,9.9-5.5c2.3-4.6,1.3-11.4-2.7-16.9c0,0,0,0,0,0c0,0,0,0,0,0l-26.5-31.4l-1-1.2l-2.9-16.7
	l-1.6-22.5l0,0l-0.1-0.6l-0.1-1l-0.1,0l-3.2-25.7l4.7-43.9l6.4-38.5l0.1,0l0-0.6l0.2-1l-0.1,0l2.4-38l0.1,0l-0.1-0.7l0.1-0.8l-0.2,0
	l-4.8-33.1l0.2-0.1l-0.3-0.6l-0.1-0.8l-0.2,0.1l-13.1-26.4l-2.3-29.7l0.1-0.1l-0.1-0.5l-0.1-1.2l-0.2,0.2l-7.5-24.5l6.6-34.1l0.1,0
	l0-0.4l0.3-1.5l-0.2,0.1l1.9-41l0,0l0-0.4l0.1-1.3l-0.1,0.1l-1.5-44.7l0.1,0l-0.1-0.5l0-1.1l-0.2,0.1l-8.7-42.3l0.1-0.1l-0.3-0.6
	l-0.2-0.9l0,0l-8.6-34.5l-3.8-28.9v0l0-0.1l0,0l-3.1-23l1.6-28.6l0.1-0.1l-0.1-0.5l0.1-1.3l-0.3,0.2l-7.8-35.8l2.7-38.7l7.9-30.9
	l0.1,0l0.1-0.7l0.2-0.8l-0.1,0l5.9-34.3l0.1,0l0-0.8l0.1-0.7l-0.1,0l1.7-28.7l2.6-14.8l3.9-9.5l14.3-7.3l15,0.5l13.7,4.2l0,0.1
	l0.5,0.1l1.2,0.4l0-0.1l18.2,3.6v0l0.6,0.1l0.9,0.2v-0.1l18.9,2.5l0,0.1l0.8,0l0.8,0.1l0-0.1l17.1-0.3l0,0l1-0.1l0.6,0l0,0l14.5-0.9
	l11.8-0.2l12.6,7.1l0,0.1l0.4,0.2l1.3,0.7l0-0.2l14.6,6.2v0l0.5,0.2l1.1,0.5l0-0.1l17.3,5.9l0,0l0.5,0.1l1.1,0.4l0-0.1l19.3,5.3
	l0,0.1l0.5,0l1.2,0.3l0-0.2l25.9,2.4l25.4,2.6l0,0l0.6,0l1,0.1l0,0l25.9,1.7l21.9,1.4l2.9,0.8l3.6,1.7l7.2,8.1l0,0l0.3,0.3l1,1.2
	l0-0.1l7.5,7.9l0,0.1l0.3,0.2l1.1,1.1l0-0.1l3,2.8l0,0l0.1,0.1l6.4,4c0.8,1,7.3,9.2,13.4,14.3c2.6,2.2,5,3.3,7.1,3.3h0
	c2.5,0,3.6-1.6,3.7-1.7l0.1-0.2c0.2-0.6,2.2-5.8,2-7.9c-0.4-3.5-4-9.4-6.3-11.8c-1.5-1.7-5.7-4.9-8-6.7l-0.9-1.8l1.1-0.3l9.8,1.4
	l0,0l0.2,0l2.1,0.3l10.3,3.4l1.6,1c3.5,3.1,10.4,9.4,11.4,10.8c0.5,0.6,1.6,2.3,2.7,4.1c2.6,4,4.5,7,5.5,7.8c4,3.3,7.1,4.5,9.4,3.5
	c2.7-1.2,2.9-5,2.9-5.1l0-0.2l-1.1-2.7l5.6,8l0.2,0.2c0.4,0.2,2.8,1.6,4.9,1.6c0.7,0,1.4-0.2,2-0.6c1.4-1.1,1.5-3.5,0.2-7.2
	C1062.4,323.2,1047,306.9,1046.4,306.2z M516.3,4.9l1.3,6.1l-2.8,1l-9.8,3.4l-0.1-0.3l-0.1,0.1l-1.5-4l-0.2-0.4L516.3,4.9z
	 M525.2,134.3l-0.7,4.4l-0.2,1.3l-6.3-2.7l2.1-4.6l0,0l0.1-0.2l5,1.5L525.2,134.3L525.2,134.3z M502.6,268.5l30.1,1.9l-0.1,40.7
	l-29.6-2.8l-0.4-39.7l0,0L502.6,268.5z M479,745.7l-4.7,23.8l-25.2,0.6l4.4-23l0.1,0l0-0.2l25.5-1.8L479,745.7L479,745.7z
	 M461.8,831l-1.5,24.7l-25,1.3l4.6-28.2l21.9,1.7L461.8,831L461.8,831z M450.2,899l-1.8,10l-4.7,26.3l-14.8,0.8l2.8-38.1l18.4,0.7
	L450.2,899L450.2,899z M437,1028l-6.3-0.1l-0.7-12.3l-0.4-8h0l0-0.1l10-1l0,0.3l0.2-0.1l1.4,10.6l1.4,10.6L437,1028z M442.6,1029.6
	l1.4,15.2l-7.1,1.8l-5.8-17.2l6.2,0.1L442.6,1029.6z M428.9,1027.9l-22.6-0.2l0.7-19.9l0,0l0-0.4l21,0.2l0.4,8.1l0.7,12.2H428.9
	L428.9,1027.9z M420.1,242.5l-0.3-5.9l-1-20.9l16.2,7.2l-1.8,28.8l-10-6.9l-3-2l0.1-0.2L420.1,242.5z M404,237.5l-1.9-23.9l15.2,1.6
	l1.3,26.9l-14.3-4.2l0.1-0.5L404,237.5z M387.2,240.5l-1.6-9.2l-2.3-12.6l8.1-2.4l9.1-2.6l1.9,24.1l-14.9,2.8l0.1-0.3L387.2,240.5z
	 M306.3,233.2l-5.6,1.1l-8,1.5l-0.9-4.7l-1.9-10l9.8-3l3.8-1.2L306.3,233.2L306.3,233.2L306.3,233.2z M118.2,281.2l-2-8.3l19.1-7.5
	l1.4,6.2l0.8,3.4l-19.1,6.2l0-0.3L118.2,281.2z M118.4,282.9l19.4-6.3l0.3,7.9l-20.1,4.2L118.4,282.9z M136.8,264.9l21.3-8l3.7,11.9
	l-21.4,5.5l-1.1,0.3l0-0.1l-0.2,0.1l-0.3-1.2L136.8,264.9z M159.6,256.4l12.3-3.4l11.3-3.2l4.5,14l-24.3,4.7l0-0.1l-0.1,0
	L159.6,256.4z M184.7,249.4l0.2-0.1l0-0.1l23-8.3l5.7,17.3l-6.8,1.4l-17.5,3.7L184.7,249.4z M209.4,240.5l0.2-0.1l0,0l17.4-6.9
	l2.8,9l3,9.5l-17.7,5.8L209.4,240.5z M215.5,259.4l17.6-5.8l3.7,15.7l-5.6,1.5l-12.9,3.5l-2.8-14.8L215.5,259.4L215.5,259.4z
	 M231.2,242.2l-2.9-9.1l16.7-5l5.4,18.2l-10.6,3.5l-5.7,1.9L231.2,242.2z M246.6,227.7l17.6-3.7l4.2,16.9l-16.4,4.9l0,0l0,0
	L246.6,227.7z M265.7,223.8l8.8-0.6l4.6-0.3l3.3,14l-2.2,0.6l-10.3,2.9l0,0l0,0L265.7,223.8z M280.7,222.8l0.2,0l0-0.1l2.6-0.5
	l4.9-0.9l0,0.1l0,0l1.9,9.9l0.9,4.6l-7.2,0.6l0-0.1l0,0L280.7,222.8z M304.9,216.4l17.1-4.4l2.7,13.9l0.9,4.6l-16.3,2.2l-1.4,0.2
	L304.9,216.4z M323.4,211.7l18.6-3.4l0.8,3.9l3.2,15.2l-0.4,0.1l-18.6,2.9l-0.8-4.3L323.4,211.7z M344.3,211.6l-0.8-3.6l0.1,0l0-0.1
	l9.6-3.3l8.2-2.9l0.5,2.2l4.9,21.1l-12.4,1.4l-6.8,0.8l0,0l0,0L344.3,211.6z M363.3,203.4l-0.5-2.3l0.1,0l0-0.1l13.2-7.9l4.5,20
	l1.1,4.7l-13,6.6l-0.3,0.2L363.3,203.4z M377.4,192.4l2.5-0.7l16.4-4.8l4.2,25.3l-9.3,2.7l-8.1,2.3l0-0.2l0,0l-1.1-5L377.4,192.4z
	 M397.7,186.6l14.6-0.6l4.8,27.6l-15.1-1.6l0-0.3l-0.1,0L397.7,186.6z M413.8,186.1l14.1,1l6.9,34.1l-13.6-6l-2.5-1.1l0-0.2l-0.1,0
	L413.8,186.1z M500.6,238.4l0.4,28.3l-26.5-5.6l-3.2-0.7v0l0,0l-4.2-32.2l33.5,10L500.6,238.4L500.6,238.4z M504.7,343.3l27.9,2.7
	l-0.1,33.6l-26.4-3l-0.6-15.2L504.7,343.3L504.7,343.3L504.7,343.3z M487.2,427.4l18.7,1.9l0,0h0l3.2,50.2l-14.2-2.9l-8.7-1.8
	l0.9-47.3L487.2,427.4L487.2,427.4z M507.5,429.4l24.9,1.2l0,49.9l-21.7-0.8L507.5,429.4z M532.4,429.1l-25-1.2v0l-1.4-49.6l0,0
	l0-0.1l26.3,3L532.4,429.1z M505.9,427.7l-18.9-1.9l-2.2-21l-3.2-30.7l22.8,3.9L505.9,427.7z M483.3,404.6l2.2,21.1l-19.2-2.9
	l-3.8-45l-0.4-4.5l18,0.7L483.3,404.6z M466.5,424.4L466.5,424.4l19.1,2.8l-0.9,47.1l-21.4-8.3l1.2-16.6l1.8-25L466.5,424.4z
	 M484.7,475.8l-1.8,47.1L462.3,508l0.6-25.7l0.3-14.7L484.7,475.8z M482.7,524.7l-4.2,31.5l-4.4-2.6l-24-14l1.5-3.9l10.2-26.2
	l0.4,0.3l0-0.1L482.7,524.7z M484.1,525.7l0.1,0.1l0-0.3l23,9.3l0,0.1h0l-0.5,22.7l-0.2,9.5L480,556.9L484.1,525.7z M484.3,523.9
	l1.9-47.4l0,0l0-0.2l8.8,1.8l14.2,2.9l-1.9,52.1L484.3,523.9z M510.7,481.3L510.7,481.3l0.1-0.1l21.6,0.8l0.2,55.3l-11.9-1.9
	l-11.9-1.9L510.7,481.3z M504.7,341.8l-1.6-32l29.5,2.7l0,31.9L504.7,341.8z M503.9,361.4l0.6,15.1l-0.1,0l-22.8-3.9l0-0.1l0,0
	l-1.5-9.7l-3.7-23.6l26.4,4l0.5,0.1L503.9,361.4z M480,372.4l-18-0.6l0-0.2l-0.1,0l-5-26.4l-1.3-6.7l19,0.5L480,372.4z M474.5,337.4
	l-19-0.5l-3.8-30.9l-0.4-3.1l20.9,1.7l2.4,32.7l-0.1,0L474.5,337.4z M472,303l-20.9-1.7l-1.1-43.5l19.7,3.9l2.1,38L472,303L472,303
	L472,303z M473.3,299.1l-2-37.1l2.3,0.5l27.5,5.8l0.4,39.8l-20-3.5l-7.9-1.4L473.3,299.1z M469.6,260.1l-19.6-3.9l0-1.3l-0.5,0.5
	L437,223.4l1.6,0.3l26.7,4.2L469.6,260.1z M465.2,226.3l-25-4l-3.7-0.6l-6.9-34.4l18.5,3.4l13.8,2.6l3.3,32.8l0,0L465.2,226.3z
	 M434.7,252.7l1.5-23.6l0.2-3.2l12,30.9l-12.8,14.1l-0.9-17.4l0.5-0.4L434.7,252.7z M435.4,303.9l0.2-30.7l0,0l0-0.2l11-12l1.9-2.1
	l1,42.4l-0.1,0l0,0.3l-14.1,4.1L435.4,303.9z M449.7,303l0.6,5.2l3.5,28.6h-0.1l0.1,0.3l-13.8,4.6l-4.6-34.5L449.7,303z
	 M454.2,338.6l0.2,1l6.1,32.3l-12.6,2.3l-7.5-31L454.2,338.6z M448.2,375.7l12.4-2.3l0.3,3l3.9,46.1l-9.1-1.9l-3.9-0.8l-3.7-44
	L448.2,375.7L448.2,375.7z M451.9,421.7l0-0.4l3.9,0.8l9,1.9l-1.8,25l-1.2,16.4l-14.6-6.3l2.3-19l2.2-18.5L451.9,421.7z M461.7,467
	L461.7,467L461.7,467l-0.3,14.3l-0.6,25.5l-13.8-11.6l0.1-34.5L461.7,467z M460.6,508.6l-9.9,25.4l-1.7,4.5l-7.5-9.2l-2-2.5
	l3.7-15.4l3.4-14.3l0.4,0.5l0-0.5L460.6,508.6z M449.6,541.1l24.4,14.2l4.2,2.5l-1.4,6.2l-6.3,27.7l-34-14.5L449.6,541.1z
	 M438.5,579.6l31.7,13.5l0,0.1l0,0l-0.8,3.6l-6.6,31.3l-10.5-2.5l-28-6.7l4.9-17.1l6.7-23.3L438.5,579.6z M453.1,627.4l9.4,2.2
	l0,0.1l0.1,0l-1,8l-4,30.8l-39.3-5.5l5.9-42.7L453.1,627.4z M457.3,670.2L457.3,670.2L457.3,670.2l-0.4,5.1l-2.8,33.6l-9.9-1
	l-25.4-2.6l-0.5-28.8l-0.2-11.6L457.3,670.2z M443.2,709.2l10.8,1.1l0,0.1h0l-0.7,13l-1.2,21.8l-28.3-4.1l-1.4-9.8l-3.6-24.7
	L443.2,709.2z M423.6,743.2l0.6,0.5l-0.1-1l27.8,4l-4.4,23.2l-0.4-0.1l-30.1-3.7l1.2-4.2L423.6,743.2z M447.3,771.5l0,0.1l0.1,0
	l-2.9,28l-27.4-2.5l-0.1-22.2l0-7.2L447.3,771.5z M417,799.1l0-0.5l27.2,2.5l-5.5,26l0,0l0,0l-13.1-0.7l-13.9-0.7l5.1-26.7
	L417,799.1z M438.4,828.7l-4.7,28.3l-15-1l-12.3-0.8l5-28L438.4,828.7z M418.2,857.5l15.2,1l0,0.1l0.1,0l-3,36.1l-0.1,1.8l-26.4-1.6
	l1.6-27.6l0.6-10.4L418.2,857.5z M430.3,897.9L430.3,897.9L430.3,897.9l-2.8,38.2l-21.9-1.4l-1.6-38.3L430.3,897.9z M406.9,979.6
	l7,0.3l12.2,0.6l0,0.1l0.1,0l1.6,24l0.1,1.5l-20.2-0.2l-0.7,0l-0.2-25.9l0,0L406.9,979.6z M405.7,936.2l21.7,1.4l0,0.1l0,0l-0.2,7.2
	l-1,34.2l-12.3-0.6l-7-0.3l-1-38l-0.1-3.6l0,0L405.7,936.2z M427.7,980.5l5.8-0.4l7-0.4l0,0.3l0,0l-0.4,10.3l-0.5,14.6l-10.1,1
	l-0.2-3.4L427.7,980.5z M440.6,978.2l-12.9,0.8l1-34.6l0.2-6.8l14.6-0.8l0,0.3l0.1,0l-1.3,18.1L440.6,978.2z M442,979.5l3.6-1.5
	l-1,24.9l-3.5,1.6l0.5-14.2L442,979.5z M431.9,896.4l0.3-3.7l2.8-34.3l24.9-1.3l-6.3,27l-3,12.9L431.9,896.4z M441.8,827.4l-1.6-0.1
	l5.5-26l0.1,0l0-0.1l17.7-0.4l-0.2,0.5l0.4-0.2l-0.1,1.5l-1.7,26.3L441.8,827.4z M445.9,799.7l2.9-28.1l25-0.6l-2.1,6l-7.7,22.2
	L445.9,799.7z M453.6,745.4l1.2-21.8l0.7-13.1l32.1-1l-7,29.4l-1.2,4.8L453.6,745.4z M455.6,708.9l2.7-32.6l0.5-5.9l36.2,1.2l0,0.1
	l-7.1,36.2L455.6,708.9z M459,668.8l3.9-30.1l1.1-8.7l35.7,3.3l-0.1,0.3l0.3,0l-4.6,36.5L459,668.8z M464.3,628.4l6.6-31.3l0.8-3.6
	l40.3,7.7l-3.4,8.8l-8.3,21.7L464.3,628.4z M472,592.1l6.2-27.2l1.4-6.3l0.1,0.1l0-0.2l26.7,10.3l0,0.1l0.1,0l5.5,30.8L472,592.1z
	 M508.2,558.1l0.6-22.9l11.9,1.9l11.9,1.9l0,32.1l-15.9-2.2l-8.8-1.2L508.2,558.1z M503.1,341.6l-27-4.1l-2.4-32.7l8.3,1.5l19.5,3.4
	v0.1l0,0L503.1,341.6z M500.6,236.7l-33.9-10.1l-0.1-1.3l-3.2-31.3l39.1,19.5l-0.1,0.3l0.2,0L500.6,236.7z M483.7,61.2l-0.1-3.7
	l-0.1-2.8l0.4,0.4l0.8,0.9l0,0.9l-0.2,4L483.7,61.2z M484.6,61.3l-0.2,3.8l0,0v0l-0.6-0.7l0-2.1L484.6,61.3z M483.5,52.5l0.9-6.5
	l0.7-5.2l1.5,3l-1.6,9.8l-0.2-0.3l0,0.5L483.5,52.5z M506.8,27.7l-10.9,5l-2.6-7.1l10.6-7.9l1.5,5.3l1.3,4.6l0,0L506.8,27.7z
	 M521.9,75.2v-0.1l0.8,0.1l1.1,0.2l0,1.8l0,1.3l0,0l-2.7-1.9l0.5-1.4L521.9,75.2z M521.9,72.1l0.5-0.1l0.4-0.1l0.6,1.7l0.1,0.2
	l-0.7-0.1l-0.9-0.1L521.9,72.1z M524.1,141.9l-0.2,3.7l-0.9-0.4l-6.7-3.2l1.2-3.2l5.4,2.3l1.3,0.5L524.1,141.9L524.1,141.9z
	 M525.4,153.5l2.1,0.5l5,1.1l0,0.3l-7.5-1.4l0.1-0.3l0.5,0.2L525.4,153.5z M506.8,123.7l0.6,3.7l-1.5,0.3l-1.7,0.4l-1.3-4.5l1.7,0
	l1.8,0l0,0.2L506.8,123.7z M509.6,88.9l-5.9,0.6l1.6-5.6l4.6-0.2l0,0l0.2,0l-0.2,5.2L509.6,88.9L509.6,88.9z M501.5,51.8l-4.3,2.1
	l-3,1.5l-3.1-4.5l7.8-6.2l2.5,6.8l-0.1,0L501.5,51.8z M505.9,72L505.9,72l-0.3,0l0-0.9l0-0.7l1.3-0.2l0.4-0.1l-0.2,2L505.9,72z
	 M507,73.5l-0.6,2.6l-1.5-0.3l-0.2,0l0.1-0.3l0.6-1.9L507,73.5z M505.9,68.8l0-0.1l-0.5,0.2l-1.1-1.6l-0.5-0.7l3.2-0.7l0.1,0.9
	l0.3,1.8L505.9,68.8z M499.5,69.9l1.9,1l-0.6,1.5l-1.6,0l-0.9,0L499.5,69.9z M496.7,66.7l-0.5-0.3l2.3-3.8l1.6,1.8l1.3,1.5l-1.6,1.4
	l-0.8,0.6L496.7,66.7z M500.5,68.7l1.9-1.6l0.3,0.5l1.1,1.6l-1.5,0.4L500.5,68.7z M502,73.8l0.5,0l1.3-0.1l-0.6,1.8l-1.3-0.3
	L502,73.8z M503.2,72.2l-0.8,0.1l0.4-1.1l0-0.1l1.4-0.4l0,0.4l-0.1,1L503.2,72.2z M502.9,65.1l-0.2-0.3l-0.1,0.1l-2.8-3.2l5.3-1.6
	l0.4,1l1.2,3.2L502.9,65.1z M504.3,58.8l-5.7,1.7l-3.5-3.9l6.9-3.4l2.4,5.5L504.3,58.8z M490.4,49.5l-1.2-3.3l-0.9-2.3l2.8-3.5
	l4.2-5.2l0.4,0.9l2.7,7L490.4,49.5z M490.5,52.7l1.1,1.6l1.2,1.8l-0.1,0.1l0.4,0.4l-0.5,1.4l-1.5,4.5l-1.9-2.8L490.5,52.7z
	 M494.2,57.9L497,61l0.3,0.4l0.1,0.1l-2.1,3.5l-0.4,0.7l-2.7-1.8L494.2,57.9z M494.8,70.9l0.8-3l0.5,0.3l1.7,0.9l0,0l0.4,0.2
	l-0.1,0.3l-1.4,2.9l-2.2,0L494.8,70.9z M500.1,73.9L500.1,73.9l0.3,0.1l-0.1,1.4l-2.3,1.6l-0.2-3L500.1,73.9z M501.3,76.6l1.2,0.3
	l-1,1.6l-1.5,2.3l-1.6-2.2L501.3,76.6z M502.9,79l1.1-1.7l0.2,0l0,0l0.3,0.1l1.4,0.3l-1.2,3.2l-0.5,1.4l-2.9-0.6L502.9,79z
	 M505.8,82.3l0.5-1.3l1.2-3.2l0.1,0l0-0.1l2.6,0.2l1,0.1l-0.3,1.2l-0.6,2.8L505.8,82.3z M507.9,76.3l0.7-2.8l2.9,0h0.1l-0.1,0.8
	l-0.2,2.3L507.9,76.3z M508.9,71.9l0.2-2.1l2.6-0.1l0.6,0l-0.4,2.2l-0.1,0l0,0.1l-2.8,0l0,0L508.9,71.9z M512.6,78.5l0.1-0.3l0.1,0
	l0-0.1l1.8,0l1.4,0l0,0.2l0.2,0l0.3,3.3l-4.6,0.4L512.6,78.5z M516.1,76.7l-3.2,0l0.1-0.8l0.2-2.3l3.4,0.3L516.1,76.7z M512.5,68
	L512.5,68l-0.1,0.1l-3.3,0.1l0-0.1l-0.2,0l-0.3-1.5l-0.2-0.9l2.7,0.2l1.8,0.2L512.5,68z M511.5,83.5l5-0.4l0,0.2l0.1,0l1.1,5.2
	l-1.8,0.1l-4.6,0.2L511.5,83.5z M519.7,74.6l0.4,0.1l-0.5,1.4l-1.9,0.4l0.1-0.9l0.2-1.4L519.7,74.6z M518.4,72.7l0.4-1.6l1.6,0.9
	l0,1.3l-0.7-0.2L518.4,72.7z M520,77.6l1.9,1.3l1.1,0.7l-3.1,1l-1.9,0.6l-0.3-3.2L520,77.6z M523.4,94.6l-0.9,0.3l-2.2,0.6l-0.7-5.5
	l0.1,0l0-0.2l3.5-0.9v0l0.1,0L523.4,94.6L523.4,94.6L523.4,94.6z M525.7,75.4l2.7,0l-0.2,3.2l0,0l0,0.1l-1,0.1l-1.7,0.2l0-0.2
	l-0.1,0l0-2.6v-0.7l0.4,0.1L525.7,75.4z M525.4,81.3l0-0.8l1.7-0.2l1-0.1l-0.2,5.8l-1.6,0.4l-1.6,0.4l0.5-5.6L525.4,81.3z M526.3,88
	l1.6-0.4l-0.4,6.1l-0.1,0l0,0.1l-0.2,0l-2.3,0.4l-0.2-5.8L526.3,88z M527.6,95.3l0.6,5.4l-0.1,0l0,0l-2.1,0.1l-0.3-1.8l-0.5-3.3
	L527.6,95.3z M528.3,102.3L528.3,102.3l0.3,0.7l0.5,2l-1.2-0.3l-1.4-2.4L528.3,102.3z M532.6,113.9v2.4l-2.9,0.1l-1.2,0l0-0.6l0-1.9
	L532.6,113.9z M529.6,112.4l0.9-1l1.2,0.1l1,0.1v0.8l-2.6,0L529.6,112.4z M529,120.5l-0.3,0l0,0l-0.1,0l-0.1-2l0-0.4l1.3,0l2.8-0.1
	l0,2.6L529,120.5z M532.6,122l0,3.7l-4.5-0.3l0.4-3.4L532.6,122z M532.6,110.1l-0.6,0l-1.1-0.1l0-0.2l0.1,0l0-0.2l1.5-0.1V110.1z
	 M531,108l0-0.7l0-0.4l0.2,0.1l0-0.2l0.9,0l0.5,0l0,1L531,108z M532,105.3l-1.2-0.1l-0.5-2l-0.3-1l2.6,0l0,3.2L532,105.3z
	 M532.5,100.7l-2.9,0.1l-0.6-5.6l1.5-0.1l1.9-0.1V100.7z M529.4,107.1l0,0.7l-2.5-0.5l0.7-1.1l1.7,0.4L529.4,107.1z M527.2,108.9
	l2.3,0.5l-0.1,0.9l-1.3,1.5l-1.1-2.9L527.2,108.9z M527.8,128.1l0.2-1.1l0,0v0l4.6,0.3l0,5.9l-5.7-0.3L527.8,128.1z M532.6,85.4
	l-3.1,0.3l0-0.1l0,0l0.2-5.5l3-0.1L532.6,85.4z M532.6,86.9l0,6.5l-2.2,0.1l-1.3,0.1l0.4-6.3L532.6,86.9z M526.8,112.6l-5,0.9l0-0.1
	l-0.1,0l-1.7-2.2l-0.7-0.9l6-1.7L526.8,112.6z M532.3,161.1l0,4.4l-6.1-0.8l-4.9-0.6l1.5-4.6l9.5,1.3L532.3,161.1L532.3,161.1z
	 M506.6,137.6L506.6,137.6l1-0.6l0.1,0.1l0.2-0.1l6.5,5.6l-0.5,1.1L506.6,137.6z M513.8,148.5L513.8,148.5l-0.2,0.6l-1.2-1l-4.6-3.8
	l4.6,3.2L513.8,148.5z M507.7,140.5l2.2,1.8l-4-3l0-0.3L507.7,140.5z M510.3,148.4l2.6,2.2l-1.1,1.4l-0.8,1.1l-8-8.5l0.4-0.3
	l0.9-0.6l0.3,0.4l0.2-0.3L510.3,148.4z M511.3,155.2l10,3.9l-0.1,0.2l0,0l-1.5,4.4l-10.9-5L511.3,155.2z M520.4,166.9l0.4-1.4
	l5.1,0.6l6.5,0.8l0,0.3h0l0,7.4l-13.7-2.3L520.4,166.9z M521.9,157.7l-9-3.5l-0.6-0.2l1-1.3l0.8-1.1l0.2,0.2l0.1-0.3l8.5,3.5
	L521.9,157.7z M514.9,150l0.2-0.5l0.8,0.6l-0.1-0.5l7.7,3.4l0,0l-0.1,0.4L514.9,150z M518.8,146.2l-3.6-1.7l0.4-0.9l0,0l0.1-0.2
	l8,3.8l-0.1,1.2L518.8,146.2z M516,138.2l-0.5,1.4l-0.6,1.5l-5.9-5l2.1-1.6l0.1,0.1l0.2-0.2l4.6,3.7L516,138.2L516,138.2z
	 M511.5,132l-2.2-3.7l2.9-1.6l0,0l0.4-0.2l1.7,2.3l-2.6,2.8L511.5,132z M516.9,116.9l1.1,1.3l-1.3,0.4l-1.3-0.4l0.5-0.4L516.9,116.9
	z M513.7,112.8l4-1.9l2.2,2.8l0.2,0.3l-2.6,0.9l-0.3,0.1l-0.1-0.2l-0.1,0.1L513.7,112.8z M515.8,119.9l-0.2,0.9h0l0,0l-2,0.2
	l0.6-1.5l0.1-0.1l0.2,0.1L515.8,119.9z M515.3,122.4l0,0.2l-0.1,0.8l-1.7,1l-0.2-1.7L515.3,122.4z M514,125.8l1.9-1.1l1.2,0.5
	l-1.8,2.4L514,125.8z M516.6,123.3l0.2-1.1l1.6,0l-0.1,0.3l-0.5,1.3L516.6,123.3z M517.2,120.7l0.2-0.7l1.4-0.4l0,0.1l0.1,1
	L517.2,120.7z M518.3,116.2l2.7-0.9l1,2l-2,0.4l0-0.1l-0.4,0.1L518.3,116.2z M518.3,109.1l-0.8-1.5l-1.8-3.4l5.1-0.6l0,0.1l0.3-0.1
	l3.2,3.7L518.3,109.1z M515,102.8l-1.5-5.2l5.4-0.3l0,0.2l0.1,0l1.3,4.8L515,102.8z M523.2,87.2l-3.9,1l-1.1-5.5l2.1-0.7l3.5-1.2
	L523.2,87.2z M516,90.1l2-0.1l0.4,2.9l0.4,2.8l-5.6,0.3l-0.8-2.8l-0.8-2.9L516,90.1z M511.9,97.7L511.9,97.7l1.5,5.3l-0.2,0l0.1,0.2
	l-8.8,2.9l-0.9-7.9l6.2-0.4L511.9,97.7z M507.9,106.5l6.2-2l2.3,4.2l0.4,0.8l-0.2,0l0.1,0.1l-3.9,1.8l-0.6,0.3l-3.7-2.6l-2.9-2
	L507.9,106.5z M512.4,113.7l3.4,2.2l-1.4,1.1l-0.6,0.5l-0.3-0.1l0,0.1l-3.4-0.7l1.7-2.3L512.4,113.7z M512.8,119l-0.9,2.2l-0.3,0
	l0,0.1l-1,0.2l-2.2,0.4l0.9-3.6L512.8,119z M510.4,123.1l1.3-0.2l0.2,1.5l0.1,0.8l-3.2,1.7l-0.5-3.4L510.4,123.1z M509.6,131.8
	l0.8,1.3l-2.3,1.8l-3.2-5.3l1.6-0.4l1.2-0.3l0,0.3l0.3-0.2L509.6,131.8z M503,129.9L503,129.9l0.2,0l2.2,3.5l1.4,2.3l-1.2,0.7
	l-1.5-2.4l-2.5-4L503,129.9z M502.7,134.9l-2.9-4.3l0.1-0.1L502.7,134.9z M503.6,142.4l-1.1,0.7l-0.3,0.2l-3.1-8.3l0.3,0.4
	L503.6,142.4z M510.1,154.3l-0.2,0.3l0,0l-2.1,3.1l-2-2.7l-5.9-8.1l2-1.5L510.1,154.3z M507.7,160.3l0.2-0.4l11.3,5.2l-0.1,0.2l0,0
	l-0.4,1.4l-1.7,5.2l-3.1-1.5l-11-5.3l3.1-3.3l1.6-1.7L507.7,160.3z M518,174.1L518,174.1l0.1-0.2l14.2,2.4l0,0.4h0l0,9.7l-5.7-0.8
	l-12.5-1.8l3-7.4L518,174.1z M527.1,187.2l5.2,0.7v0.3h0l0,12.2l-23.6-2.1l4.8-13.2L527.1,187.2z M532.3,202v0.2h0l0.1,11.8
	l-7.9-0.5l-20-1.2l3-10l0.7-2.4L532.3,202z M532.4,156.9l0,0.4l0,0l0,1.9l-9-1.2l0.8-1.9l0.2-0.6l0.1,0l0-0.2L532.4,156.9z
	 M516.7,136.6l-4.3-3.4l0.8-0.9l2-2.3l0.1,0.1l0.2-0.2l3.3,2.1L516.7,136.6z M516.4,128.6l2.1-2.9l0.2,0.1l0-0.1l0,0l2.4,0.6
	l-1.8,4.3L516.4,128.6z M519.9,124.4l-0.6-0.1l0.8-2l2.3-0.1l-0.4,1.7l-0.2,0.9L519.9,124.4z M520.7,120.6L520.7,120.6l-0.4,0
	l-0.1-1.4l2.3-0.4l0.1,0.8l0.1,1L520.7,120.6z M522.5,115l4.5-0.8l0,2.4l0,0l0,0.1l-3.1,0.4l0,0l-0.3,0.1L522.5,115z M527.1,120.5
	l-1.8,0l-1.1,0l-0.1-0.9l-0.1-1l0.4-0.1l2.6-0.4L527.1,120.5z M523.5,124l0.5-1.9l0.2,0v0l1,0l1.8,0l-0.4,3.3l-3.1-0.3l-0.3,0
	L523.5,124z M526.7,134.4l6,0.3l0,6.9l-6.9-1l0.3-2.1L526.7,134.4z M532.6,78.5l-2.9,0.1l0-0.1l0.2-3.1l2.7,0L532.6,78.5z
	 M530.1,73.9L530.1,73.9l-0.2,0l-0.2-0.7l-0.5-2.2l3.2-0.1l0.3,0l0,3L530.1,73.9z M528.8,69.4L528.8,69.4l-0.2-0.1l-2.8-5.1l3.6-0.2
	l3.3-0.2l0,5.4L528.8,69.4z M527.9,72.2l0.4,1.7l-3.1,0l-0.8-2.4l3.3-0.5L527.9,72.2z M524.9,102.5l1.6,2.8l-0.8,1.1l-0.1,0.1
	l-2.9-3.4L524.9,102.5z M524.1,101.2l-2.2,0.7l-1.4-4.9l2.5-0.7l0.5-0.2l0.5,3.3l0.2,1.5l-0.4,0L524.1,101.2z M521.3,70.7
	L521.3,70.7l-1.7-0.9l-0.2-0.1l0.2-0.3l0.3-0.5l0.6,0.5l1.3,1.2L521.3,70.7z M519.8,66.6l-0.2-0.1l-0.2,0.2l-0.1,0l-4.5-1.7l0.1-0.2
	l-0.1,0l0.2-3.5l8,2.6L519.8,66.6z M515.4,66.8l3.2,1.2l-0.4,0.6l-0.2,0.3l-0.3-0.2l-0.1,0.3l-3.6-0.7l0.4-1.9L515.4,66.8z
	 M517.3,70.5l-0.4,1.8l-0.1,0l0,0.1l-2.1-0.2l-1.3-0.1l0.1-0.7l0.3-1.5L517.3,70.5z M513.3,64.6l-1.7-0.1l-3.3-0.3l0-0.2l-0.1,0
	l-1-2.7l-0.4-1.1l6.9,0.8L513.3,64.6z M506,58.5l-0.1-0.2l0,0l-2.4-5.5l9-0.8l0.7,5.5l0.2,1.9L506,58.5z M503,51.4l-2.7-7.4
	l10.6-2.7l0.7,4.2l0.8,5L503,51.4z M499.7,42.5l-0.1-0.3l0,0l-3.1-8l10.8-5l2.2,7.2l1,3.3L499.7,42.5z M494.6,33.4L494.6,33.4
	l0.1,0.3l-4,4.9l-3,3.7l-0.5-1.5l-0.1,0.5l-1.5-2.9l0.1-0.1l6.6-11.1L494.6,33.4z M485.8,68.9l0.3,0.4l0.3,0.3l-0.4,4.4l-0.3,3.3
	l-0.2-0.2L485.8,68.9z M486.3,67.2l-0.4-0.5l0.3-7.1l0.1-1.6l1,1.5l0.3,0.4l-0.1,0.7l-0.8,6.7l0-0.1l0,0.2L486.3,67.2z M486.4,55.6
	l1.4-8.8l0.7,2l0.7,1.8l-0.1,0.1l0.2,0.3l-1.3,7l-0.1-0.2l0,0l-0.1-0.2L486.4,55.6z M488.9,61.9l1.6,2.3l-0.1,0.2l0.1,0l-0.5,2.1
	l-0.9,3.8l-1-1.3L488.9,61.9z M490.1,73.1l2.3,0.6l-0.1,0.2l0.2,0l-0.3,4l-0.3,3.9l-2.7-1.1L490.1,73.1z M490.4,71.6l0.9-3.9
	l0.5-2.4l2.3,1.5l0,0.1l0.2,0.1l-0.8,3l-0.6,2.2L490.4,71.6z M493.9,77.3l0.2-3.4l1,0l0.8,0l0,0l0.5,0l0.2,4l-0.3,0.2l0.1,0.1
	l-0.1,0.1l-2.7,2.6L493.9,77.3z M497,79.7l0.2-0.2l1.8,2.6l-0.3,0.5l0,0l-3,4.9l-2.2-4.4L497,79.7z M496.4,90l5.4,0.9l-0.1,0.3
	l0.3,0L502,93l0.1,3.6l-7.3-0.2L496.4,90z M497,88.6l3.4-5.6l3.3,0.7l-0.1,0.2l0.1,0l-1.5,5.6L497,88.6z M510,90.4l0.8,2.9l0.8,2.8
	l0,0h0l-2,0.1l-5.9,0.3l-0.1-3.6l-0.1-2L510,90.4z M504.4,108.3l3.2,2.2l3,2l0,0l0.5,0.3l-0.6,0.8l-2.1,2.8l-5.6-1.3L504.4,108.3z
	 M503.4,116.9l4,0.9l0,0l0.4,0.1l-0.1,0.3l-0.9,3.8l-2.3,0l-1.9,0l0-5.4L503.4,116.9z M502.6,128.4l-1.3,0.2l-0.6,0.1l-2.1-5.2
	l-0.2-0.4l2.3,0.4l0.3,0.1v0.1l0.2,0L502.6,128.4z M497.9,121.4l-1.3-6l4.4,1l0.1,0l0,5.6L497.9,121.4z M496.7,122.8l0.4,1.1l2,5
	l-0.2,0l0.2,0.3l-0.1,0l-3-6.3l0-0.2l0.2,0L496.7,122.8z M499.6,140.8l1.2,3.3l-0.3,0.2l0.1,0.1l-1.4,1l-1.3-9.1L499.6,140.8z
	 M498.1,147.8l0,0.3l0.4-0.3l5.1,7l3.1,4.2l-1.8,2l-3.1,3.3l-9-14.2l3.1-1.3L498.1,147.8z M501.6,166.6l0.3-0.3l12.8,6.2l1.9,0.9
	l-1.6,3.9l-2.5,6.2l-16.4-4.5l-7.4-2l12.7-10.4L501.6,166.6z M493.4,179.7l18.6,5.1l0,0.1l0,0l-3.3,9l-1.5,4.1l-13.1-6l-17.4-7.9
	l7.3-4.2l3-1.7l0.1,0.1l0.4-0.3L493.4,179.7z M493.1,193.3l13.6,6.2l-0.1,0.3l0.1,0l-1.7,5.6l-2,6.6l-38.9-19.4l11-7.4L493.1,193.3z
	 M504.1,213.9l20.2,1.2l8,0.5v0.1l0,0l0.2,23.5l-30.5-2.2L504.1,213.9z M526.6,151.1l-1.5-0.3l0-0.1l0-0.1l7.6,1.4l0,0.3
	L526.6,151.1z M520.8,131.2l1.9-4.6l0.1,0l0-0.1l0.1,0l3.5,0.3l-0.2,1.5l-0.7,4.4L520.8,131.2z M525.6,142.1l7.1,1.1l0,4.3l-7.4-1.3
	L525.6,142.1z M532.7,62.4l-2.7,0.1l-4.7,0.2l-0.7-6.8l-0.3-3.1l8.4,0.4L532.7,62.4z M524.3,64.8l2.7,4.8l-3.2,0.4l0-0.1l-0.3,0.1
	l-1.9-1.7l-0.7-0.7L524.3,64.8z M515.1,59.7l0-0.1l-0.1,0l-0.2-1.9l-0.7-5.6l8.6,0.7l0,0l0,0l0.9,9.7L515.1,59.7z M513.9,50.5l0-0.1
	l0,0l-0.9-5.7l-0.6-3.7l9.3-0.6l1,10.8L513.9,50.5z M512.1,39.5l0-0.1l-0.1,0l-1-3.4l-2.2-7.2l1.1-0.3l9.5-2.2l2,12.6L512.1,39.5z
	 M519.1,24.7l-10.8,2.6l-1.4-4.9l-1.6-5.5l0.1,0l12.4-4.3l0.4,3.8l0.9,8.2l0,0L519.1,24.7z M501.7,11.6l0.4,1l1.3,3.5l-10.6,8
	l-0.2-0.5l-0.1,0.1l-1.2-2.8l-0.1-0.2L501.7,11.6z M484.3,32.9l6-10.7l1.3,3.1l-6.8,11.4l-0.7-1.8L484.3,32.9z M483.7,38l0.1,0.3
	l0,0l0.1,0.2l-1.1,7.8l-0.3,1.9l0-0.3L483.7,38z M486.8,102.4l-1-1.5l-1.8-0.5l-1.6-7l0,0l-2-11.3l-0.7-6.7l0.4-0.9l-0.5-7.2
	l2.3-2.8l0.3,0.5l0,0.1l2.1,2.3l-0.2,8.1l-2.1-2.6l0.5,2.8l-0.1,3.3l1.3,6.3l0.6,1.3l0.4,1.8l1.5,10.9l0,0l0.8,3.5L486.8,102.4z
	 M487.4,89.9l-0.2-0.2l0-8.6l0.2,0.2l0.3,0.3l0,0.2l0,0L487.4,89.9z M488.6,72.8l-0.8,6.8l-0.5-0.5l-0.2-0.2l0.3-3.6l0.3-3.9l0.8,1
	L488.6,72.8L488.6,72.8z M488.9,91.9l0.3-9.5l2.3,1l0.3,0.1l-2.2,9.6L488.9,91.9z M491.6,104.7l-0.8-8.4l0,0l2.1,1.2l-0.1,0.4l0.3,0
	l0.4,7.2L491.6,104.7z M492.3,108.5l-0.4-2.2l1.7,0.3l0,0.1l0.1,0l0.5,3.2l0.3,1.7L492.3,108.5z M493.3,96l-2.1-1.2l-0.3-0.2
	l2.1-9.4l2,3.9l-0.4,0.6l0.3,0L493.3,96z M494.6,98l7.4,0.2l0.1,0l0,0.1l0.1,0l0.9,7.9l-4.6-0.5l-3.5-0.4L494.6,98z M498.4,107.2
	l4.6,0.5l-1.7,7.2l-0.2,0v0l-4.8-1.1l-0.5-3.5l-0.5-3.4L498.4,107.2z M495.2,116.2l1.1,4.9l-0.2,0l0,0.1l-0.3,0L495.2,116.2z
	 M496.2,135l1.7,11.2l-2.2,0.9l-2.9,1.2L496.2,135z M491.5,150.8l9.2,14.4l-13.3,10.9l-5.3-8.3l-3.1-4.9L491.5,150.8z M477.6,163.7
	l3.1,4.9l5.4,8.5l-3.5,2l-7.4,4.3l-11-16.2L477.6,163.7z M462.5,167.3l11.4,16.7l-0.6,0.3l0.1,0.1l-10.6,7.1l-13-23.4l-0.9-1.6
	L462.5,167.3z M447.2,166.6l13.9,25l-13.5-2.5l-18.4-3.4l0-0.1l-0.1,0l-4.9-15.9L447.2,166.6z M422.7,169.9l4.8,15.6l-13.9-1l0-0.1
	l-0.1,0l-0.5-1.8l-3-11.2L422.7,169.9z M408.5,171.7l3.1,11.6l0.3,1.2l-14.5,0.6l0-0.2l-0.1,0l-3-11.5L408.5,171.7z M392.9,173.8
	l3,11.6l-16.6,4.9L377,191l-0.1-0.2l-0.1,0l-3.6-11.5L392.9,173.8z M371.9,180l3.7,11.6l-13.3,7.9l-3.4-10.4l-0.3-0.9L371.9,180z
	 M357.2,189.1l0.3,1l3.3,10.1l-8,2.8l-9.7,3.4l-2.4-7.9L357.2,189.1z M339.3,199l2.4,7.7l-18.5,3.4l0-0.1l-0.1,0l-2-7.1L339.3,199z
	 M319.5,203.4l2,7.1l-17,4.4l0,0l0,0l-1.4-6.4l-0.2-0.7L319.5,203.4z M301.6,208.2l0.1,0.3l1.5,6.8l-4.1,1.3l-9.4,2.9l-0.7-3.8
	l-0.8-4.3L301.6,208.2z M286.6,211.6l0.8,4.3l0.7,3.9l-4.6,0.8l-3.3,0.6l-0.5-1.2l-2.9-7L286.6,211.6z M275.2,213.1l3.4,8.3
	l-4.5,0.3l-8.7,0.6l0-0.1l-0.1,0l-4.3-9L275.2,213.1z M259.3,213.3l4.4,9.3l-17.5,3.7l0-0.1l-0.1,0l-1.4-2.6l-3.7-6.9L259.3,213.3z
	 M239.4,217l4,7.4l1.2,2.2l-16.6,4.9l0-0.1l-0.1,0.1l-0.3-0.5l-5.5-9.7L239.4,217z M220.5,221.8l5.2,9.2l0.6,1.1l-17.6,7l-4.3-7
	l-1.7-2.9L220.5,221.8z M201.3,229.8l1.8,2.9l4.2,6.9l-23.2,8.3l-2.3-3.8l-2.7-4.3L201.3,229.8z M177.6,240.5l4.5,7.2l0.5,0.8
	l-10.8,3l-12.6,3.5l0-0.1L159,255l-3.2-5.4l-0.8-1.4L177.6,240.5z M153.4,248.7l1.3,2.1l2.8,4.7l-21.1,7.9l0,0l-0.2,0.1l-0.8-1.5
	l-2.4-4.6L153.4,248.7z M131.7,257.9l2.5,4.8l0.7,1.3l-19,7.4l0-0.1l-0.2,0.1l-2.3-4.3l-0.8-1.6L131.7,257.9z M111.7,267.1l2.6,5.1
	l-11.8,5.5l-3.3-6.6l11.9-5L111.7,267.1z M80.6,302.2l2.5,0.1l-6.5,7.7l-2-1.1l-0.8-2.2l1.8-2.8l1.5-0.4L80.6,302.2L80.6,302.2z
	 M83.3,304.5l1.5-1.8l4.4,3.9l-1.1,1l-6.9,6.6l-1.9-1.9l0-0.2l-0.2-0.1l-1.2-1.2L83.3,304.5z M84.2,300.8l-6.6-0.3l-0.5,0l-0.3-2.1
	l-0.6-4.2l12.9-4.9L84.2,300.8z M76,292.6L76,292.6l-0.1-0.5l-0.4,0.4l-5-8l12.8-6.3l6.2,9.3L76,292.6z M64.1,299.5l-5.5-8.7
	l10.5-5.6l5.3,8.4l-3.6,3.2l-5.4,4.9L64.1,299.5z M64.1,302.5l-10.1,3.1l-0.8,0.2l-4.5-9.1l8.5-5.1l4.5,7.2L64.1,302.5z M84.6,277.6
	l7.8-3.5l5.3-2.4l3.4,6.6l-0.1,0l0.1,0.2l-2.5,2l-8,6.4L84.6,277.6z M107.5,265.3l1.3,0.2l-10.2,4.2l0,0l-0.4,0.2l0,0l-2.9-1
	L107.5,265.3z M92.7,269.7l3.3,1.1l0,0l-10.2,4.5l-2.1,0.9l0,0l-0.2,0.1l-2.5-2.2L92.7,269.7z M79.5,274.8l2.6,2.3l-12.5,6.2l0,0
	l-0.2,0.1l-2.4-1.9l-1.2-0.9L79.5,274.8z M64.3,281.2l1.5,1.2l2.2,1.7l-10.2,5.4l0,0l-0.2,0.1l-5.3-3.8L64.3,281.2z M50.8,286.5
	l5.4,3.9l-7.3,4.4l-1.2,0.7L41,295L50.8,286.5z M44.1,290.2l-5.2,4.5l-1.6-0.2C39.3,293.2,41.6,291.8,44.1,290.2z M7.1,339.4
	c-1.3,0.7-4,1.9-5,1.1c-0.8-0.6-0.7-2.7,0.3-5.6c3.6-10.9,19.2-27.5,19.4-27.6c0.1-0.1,3.3-4.3,13.6-11.4l2,0.2l-0.1,0.1l1.8,0.2
	l0.3,0l0,0l7.9,0.7l4.5,9.1l-7.7,2v0h0l-3.8,1l-2.7,0.2L41,311l-0.4-0.1l-2.2-1.1c-0.1-0.1-2.8-1.2-6.5,0.8
	c-3.5,1.9-11,9.1-11.3,9.4l-4.1,5.8c-0.1,0.1-0.1,0.1-0.1,0.2L7.1,339.4z M32,324c-0.5,0.7-1.6,2.3-2.8,4.2
	c-1.8,2.8-4.2,6.7-5.2,7.5c-4.4,3.7-6.6,3.8-7.8,3.3c-1.6-0.7-1.9-3-2-3.7l3.5-8.6l4-5.7c0,0,7.6-7.3,10.9-9c3-1.6,5-0.8,5.1-0.7
	l2,1l0,0.1l3.1,1.4C40.3,316,33.2,322.5,32,324z M45.6,311.6l-2.3-1.2l4.7-0.4L45.6,311.6z M59.6,306.8l-3.4,1.1l-0.2,0l-5.2,0.1
	l1.8-0.4l0,0l8.2-2.5l1.3-0.4L59.6,306.8z M65.1,304.1L65.1,304.1l0.2-0.2l0.9,0.7l-2.9,0.9L65.1,304.1z M65.6,306.9l2.6-0.8
	l0.5,0.4L65.6,306.9z M66.9,302.5l4.8-4.4l3.1-2.9l0.5,3.7l0.3,1.9l-2,1.7l-3.2,0.9l-0.4-0.1L66.9,302.5z M71.2,305.2l-0.4,0.9
	l-0.8-0.6L71.2,305.2L71.2,305.2z M66.5,333.8c-2.3,1.9-4.5,3-6.2,3c-1.5,0-2.2-0.7-2.4-1c-0.8-2.1-2-5.8-1.9-7
	c0.4-3,3.8-8.7,5.9-11c1.7-1.9,7.5-6.3,9-7.4l7,2.8l1.6,6.5l0,0l0.1,0.1l0,0C78.3,321.5,72.3,329,66.5,333.8z M80.9,318.8l-0.9-3.7
	l0.5,0.5l0.8,2.9L80.9,318.8z M87.7,313.8l-5.1,3.8l-0.6-2.1l7.7-7.4l0.3,2.7L87.7,313.8z M90.2,305.4l-4.5-3.9l0.5-0.6l-0.4,0
	l5-11.7l0.7,0.6l6,5.8l-3,4.1L90.2,305.4z M92.4,307.9l-1,1.3l-0.3-2.4l0.3-0.3l-0.1-0.1l3.9-5.2l2.8-3.8l0.5,3l0.4,2.2L92.4,307.9z
	 M99,294.2l-0.1-0.4l-0.5,0.7l-6.7-6.5l7.8-6.2l2.5-2l4.7,7.7L99,294.2z M100.2,301.3l-0.4-2.2l-0.5-2.7l6-0.9L100.2,301.3z
	 M106.6,292.5l0,0.4l-5.4,1.3l5.6-4.8L106.6,292.5z M103.3,279l11.5-5.4l2,8.4l-5.2,2.8l-3,1.6l0-0.4l-0.7,0.6L103.3,279z
	 M110.8,291.9l-2.6,0.7l0.1-2.1l0.2-2.3l3.3-1.8l5-2.7l-0.4,5.5L110.8,291.9z M137,287.9l-0.6,1.7l-19.5,1.3l0.7-0.5l20.1-4.2
	L137,287.9z M162.3,287.9l-24.3,1.6l0.7-1.8l0.7-1.9l12.8-1.8l11.2-1.6L162.3,287.9z M152.4,282.5l-12.4,1.7l0-0.1l-0.5,0.1
	l-0.3-8.1l0.7-0.2l22.2-5.7l0.3,2.5l1.1,8.1L152.4,282.5z M163.6,270l24.5-4.7l0.6,4.3l1.2,8l-7.8,1l-16.7,2.1l0,0l-0.3,0l-1.2-8.8
	L163.6,270z M188.3,285.3l-24.4,2.5l1.2-5.5L183,280l6.8-0.9L188.3,285.3z M215.3,282.8l-25.3,2.4l1.5-6.2l14.6-1.6l10.7-1.2
	L215.3,282.8z M206.3,275.7l-14.4,1.6l0,0l-0.4,0l-1.2-8.2l-0.6-4.2l0.1,0l0,0l17.7-3.8l6.5-1.4l2.8,14.8L206.3,275.7z M236.6,272.8
	l-0.5,4.4l-19.2,5.3l1.4-6.5l0.3,0l0-0.1l12.4-3.3l5.9-1.6L236.6,272.8z M234.6,253.1L234.6,253.1L234.6,253.1l6.4-2.1l9.9-3.3
	l4,15.5l-16.6,5.7L234.6,253.1z M254.9,268.3l-0.1,2.5l-17.1,5.9l0.6-5.1l0.1-1.1l0.2-0.1l0,0l16.4-5.6L254.9,268.3z M271.1,263.9
	l-14.7,6.2l0.2-5.9l0.2-0.1l0,0l14.9-5.7L271.1,263.9z M265,259.4l-8.5,3.3l-4-15.4l16.4-4.9l2.9,14.5L265,259.4z M284.2,256.6
	l-11.5,6.5l0.6-5.2l0.2-0.1l0,0l8.8-4.1l2.6-1.2L284.2,256.6z M283.1,251.5l-10,4.7l-2.7-13.6l-0.1-0.7l10-2.8l2.5-0.7l0.1,0.5
	l2.1,11.8L283.1,251.5z M284.2,238.1l7.2-0.6l0,0.1l0,0l1.2,5.4l1.9,8.1l-8-0.6l0.1-0.6l-0.4,0.2L284.2,238.1z M285.7,256.3l0.7-4.3
	l8.6,0.6l0,0h0l0.9,3.8L285.7,256.3z M294.2,242.6l-1.2-5.4l1.6-0.3l12-2.3l0.8,4l2.5,12.8l-13.7-0.3L294.2,242.6z M297.4,256.5
	l-0.9-3.8l13.7,0.3l0.8,4.4L297.4,256.5z M311.5,251.4L311.5,251.4l-2.4-11.8l-1-5.2l1.4-0.2l16.3-2.2l3.7,20.1L311.5,251.4
	L311.5,251.4z M312.6,257.4l-0.8-4.4l17.9,0.7l0.2,4L312.6,257.4z M327.3,231.8L327.3,231.8L327.3,231.8l19-3l4,20.9l-6.6,0.8
	l-12.7,1.6L327.3,231.8z M350.4,253.9l0,1.2l-19,2.5l-0.2-3.8l0.1,0l0-0.1l19.2-2.4L350.4,253.9z M370.7,250l-0.2,1.2l-18.5,3.7l0-1
	l0-2.8l0.1,0l0,0l10.8-1.5l8.1-1.1L370.7,250z M351.9,249.5l-3.5-18.5l-0.5-2.4l6.7-0.8l12.4-1.4l4,20.3L351.9,249.5z M385.5,242.9
	l-0.8,3.9l-12.6,3.9l0.4-2l0.1-0.6l0.3,0l0-0.2l10.3-4.2l2.5-1L385.5,242.9z M382.8,242.2l-10.3,4.1l-4-20.1l0,0l-0.1-0.2l0.8-0.4
	l12.5-6.3l2.2,12.5l1.7,9.3L382.8,242.2z M400.1,246.2l-13.8,0.5l0.9-4.5l14.9-2.8l-1.3,4.2L400.1,246.2z M401.6,246.5l0.8-2.8
	l1.3-4.4l13.9,4.1l0.6,0.2l-2,6l-1.3,3.8L401.6,246.5z M416.3,254.4l1.3-3.9l2.1-6.2l12.9,8.8l-12.8,9.9L416.3,254.4z M420.3,264.6
	l12.9-10l0.9,17.6l-11.4,5.8L420.3,264.6z M422.9,279.7l11.2-5.7l-0.2,31l0,1.1l-9.3,1.8L422.9,279.7z M424.8,309.3l9.1-1.7v0.1
	l0.1,0l4.6,34.5l-3.1,0.6l-4.9,0.9L424.8,309.3z M430.9,345l7.8-1.4l0,0.1l0.1,0l7.4,30.7l-7.6,0.8L430.9,345z M438.9,376.8l7.6-0.8
	l3.6,43.1l-2.2-1.1l-6.5-3.5L438.9,376.8z M441.3,416.1l6.3,3.3l2.6,1.4l-2.2,18.6l-2.3,18.9l-12.1-6.8L441.3,416.1z M445.5,460
	L445.5,460L445.5,460l-0.1,33.4l-2.7-3.3l-7.6-9.3l-1.5-27.5L445.5,460z M434.9,482.8l10.5,12.9l-3.2,13.1l-3.7,15.4l-2.3-7.3
	L432,504L434.9,482.8z M428.2,533.3l3.4-25.8l6.2,19.5l-6.4,13.3l-10.3,21.4L428.2,533.3z M433.3,540l5.2-10.8l0.2,0.8l0.3-1.2
	l1.9,2.3l7.4,9.1l-0.1,0.2l0,0l-13.1,36.1l-15.5-8.1L433.3,540z M419.2,569.8l15.4,8.1l0,0.1l0,0l-6.8,23.4l-4.9,17l-12.4-6.3
	L419.2,569.8z M410.4,613.8l12.1,6.1l0,0.2l0.1,0l0,0.2l-5.8,42.3l-7.1-3.8l-0.7-0.3L410.4,613.8z M408.9,660.3l0.2,0.1l7.3,3.8
	l0,0.2l0.1,0l0.2,11.2l0.5,28.9l-5.6-2.8l-0.8-0.4L408.9,660.3z M411.1,703.2l6.1,3.1l0,0.2l0.1,0l3.7,25.4l1.2,8.1l-4.7-4
	L411.1,703.2z M417.1,737.8l5.2,4.4l-5.5,19.3l-1.2,4.2l-5.8-3.9L417.1,737.8z M409.6,763.5l5.6,3.7l-0.1,0.3l0.2,0l0,7.3l0.1,21.6
	l-8.1-4.5L409.6,763.5z M406.8,793.4l8.5,4.8l-5.1,27.2L399,821l-4.9-1.9L406.8,793.4z M393.7,820.6l5.6,2.2l10.6,4.1l0,0.2h0
	l-5,27.9l-16-1.8L393.7,820.6z M388.9,854.8l15.8,1.7l0,0l0.1,0l-0.6,9.4l-1.7,28.6l-11.2-1.7L388.9,854.8z M391.5,894.5l10.9,1.7
	l0,0.1l0.1,0l1.6,38.1l-6.3-2.2L391.5,894.5z M398,933.7l6.2,2.2l0.1,3.5l1,38.2l-2.8-1.4L398,933.7z M402.4,977.8l2.9,1.5l0.2,26.2
	l-3.1-1.3l-3.1-1.3L402.4,977.8z M399.1,1004.5l3.2,1.3l3.1,1.3l-0.7,20.4l-7.1-1.6L399.1,1004.5z M397.5,1027.4l6.7,1.6l-9,11.6
	L397.5,1027.4z M439.5,1091.8c-1.9,3-7,4-11.9,4.6l-1-13.3c0-0.4-0.4-0.8-0.8-0.7c-0.4,0-0.7,0.4-0.7,0.8l1,13.4
	c-0.9,0.1-1.8,0.2-2.6,0.2c-1.7,0.1-3.3,0.3-4.6,0.5c-3.1,0.5-6.2,0.8-9.3,0.9l1-13.4c0-0.4-0.3-0.8-0.7-0.8
	c-0.4-0.1-0.8,0.3-0.8,0.7l-1.1,13.6c-3.6,0.1-7.2,0.1-10.7,0.2c-1.8,0-3.6,0-5.4,0c-0.2,0-0.4,0-0.7,0l2.2-13.5
	c0.1-0.4-0.2-0.8-0.6-0.9c-0.4-0.1-0.8,0.2-0.9,0.6l-2.3,13.7c-2.5-0.1-4.9-0.5-7.5-0.9c-1.9-0.3-3.8-0.6-5.7-0.7l3.7-13.5
	c0.1-0.4-0.1-0.8-0.5-0.9c-0.4-0.1-0.8,0.1-0.9,0.5l-3.8,13.8c-0.7,0-1.5-0.1-2.2-0.1c-4.1,0-7-1.6-8.5-4.6
	c-2.1-4.1-1.1-10.3,2.6-15.3l26.5-31.3l1.1-0.8l0.1-0.8l11.2-14.4l0.4,0.1l0-0.2l23.2,0.2l6.2,18.3l4.9,30.2c0,0.7,0.1,1.5,0.1,2.4
	C440.8,1084.1,441.1,1089.2,439.5,1091.8z M443.8,1066.2l-2.3,8.2l-4.2-26.2l6.8-1.8L443.8,1066.2z M445.2,1041.4l-1.1-11.8h0l0-0.2
	l5-1L445.2,1041.4z M449.3,1026.9l-5.4,1l-1.4-10.8l-1.4-10.9l3.7-1.6L449.3,1026.9z M445.8,976.3l-3.7,1.5l3-41.2l7.8-2.2
	L445.8,976.3z M453.2,932.7l-7.8,2.2l4.7-26.2l1.8-10.3l7.5-2.7L453.2,932.7z M459.7,894l-7.5,2.7l9.3-39.6l0.1,0l0-0.1l6.1-1.2
	L459.7,894z M468.1,854.2l-6.3,1.2l1.6-25.2l0.1,0l7.4-3.4L468.1,854.2z M471,825l-7.5,3.5l1.7-26.3l0.1-1.7l7.4-2.9L471,825z
	 M472.9,795.8l-7.1,2.8l7.6-21.9l2-5.8l0.1,0l0-0.2l8.8-3.6L472.9,795.8z M485.1,765.2L476,769l4.8-24.1l1.8-0.9l7.8-3.9
	L485.1,765.2z M490.7,738.2l-9.1,4.5l-0.4,0.2l1.5-6.3l6.5-27.3h0l0-0.1l11.7-3.3l0,0L490.7,738.2z M501.5,704.1l-0.6,0.2l-11.3,3.2
	l7-35.5l0.1-0.5l0,0l0-0.1l14.3-2.9L501.5,704.1z M511.4,666.9l-14.5,2.9l4.6-36.5l17.2-2.3L511.4,666.9z M519,629.4l-17,2.3
	l7.6-19.9l3.8-10l7.9,2.9L519,629.4z M532.3,602.6l-9.9,0.7l-4.3-1.6l14.3,0.7L532.3,602.6z M532.7,600.9l-11.1-0.5l-7.9-0.4
	l-5.5-30.8l8.8,1.2l15.7,2.2l0.1,17.4L532.7,600.9z M532.7,268.8l-30.2-1.9l-0.4-28.5l30.5,2.2l0.1,22.7L532.7,268.8z M532.7,150.4
	l-7.6-1.4l0.1-1.1l0,0l0-0.3l7.5,1.3l0,0.2L532.7,150.4z M532.7,51.6l-1.1,0l-7.5-0.3l-1-11l3.5-0.1l6.1-0.1l0,1.9L532.7,51.6z
	 M532.8,24.9h-0.2l0.1,13.8l-5.9,0.1l-3.8,0.1l0,0l0,0l-2.1-12.8L532.8,24.9L532.8,24.9z M532.8,23.3l-12.2,1.2l-1.1-9.5l-0.3-2.7
	l13.6-2V23.3z M532.8,8.6l-13.7,2l0-0.2l-0.1,0l-1.2-6l15.1-2.7V8.6z M1029.7,294.6l-1.6,0.2l-5.2-4.5
	C1025.4,291.8,1027.7,293.2,1029.7,294.6z M1016.2,286.5l9.8,8.4l-6.6,0.6l-1.2-0.7l-7.3-4.4L1016.2,286.5z M983.7,304.5l5.4,6.4
	l-1.2,1.2l-0.2,0.1l0,0.2l-1.9,1.9l-6.9-6.6l-1.1-1l4.4-3.9L983.7,304.5z M977.8,289.3l12.9,4.9l-0.6,4.2l-0.3,2.1l-0.5,0l-6.6,0.3
	L977.8,289.3z M983.9,302.3l2.5-0.1l0,0.1l3.5,1.2l1.5,0.4l1.8,2.8l-0.8,2.2l-2,1.1L983.9,302.3z M991.1,292.2l-0.1,0.5l0,0
	l-13.4-5.1l6.2-9.3l12.8,6.3l-5.1,8L991.1,292.2z M965.8,278.3l3.4-6.6l5.3,2.4l7.8,3.5l-6.1,9.3l-8-6.4l-2.5-2L965.8,278.3
	L965.8,278.3z M997.9,285.2l10.5,5.6l-5.5,8.7l-1.4,2.2l-5.4-4.9l-3.6-3.2L997.9,285.2z M1005.2,298.7l4.5-7.2l8.5,5.1l-4.5,9.1
	l-0.8-0.2l-10.1-3.1L1005.2,298.7z M1002.7,281.2l12,4.6l-5.3,3.8l-0.2-0.1l0,0l-10.2-5.4l2.2-1.7L1002.7,281.2z M987.5,274.8
	l13.6,5.7l-1.2,0.9l-2.4,1.9l-0.2-0.1l0,0l-12.5-6.2L987.5,274.8z M985.9,274.2l-2.5,2.2l-0.2-0.1l0,0l-2.1-0.9l-10.2-4.5l0,0
	l3.3-1.1L985.9,274.2z M959.5,265.3l12.3,3.6l-2.9,1l0,0l-0.4-0.2l0,0l-10.2-4.2L959.5,265.3z M955.3,267.1l0.5-1l11.9,5l-3.3,6.6
	l-11.8-5.5L955.3,267.1z M935.3,257.9l19.1,7.7l-0.8,1.6l-2.3,4.3l-0.2-0.1l0,0.1l-19-7.4l0.7-1.3L935.3,257.9z M760.7,233.1
	l2.9-16.3l3.8,1.2l9.8,3l-1.9,10l-0.9,4.7l-8-1.5L760.7,233.1L760.7,233.1L760.7,233.1z M679.4,240.6l-14.9-2.8l1.9-24.1l9.1,2.6
	l8.1,2.4l-2.3,12.6l-1.6,9.2l-0.4-0.2L679.4,240.6z M662.8,237.9l-14.3,4.2l1.3-26.9l15.2-1.6l-1.9,23.9l-0.4-0.1L662.8,237.9z
	 M646.8,242.8l-3,2l-10,6.9l-1.8-28.8l16.2-7.2l-1,20.9l-0.3,5.9l-0.2,0.1L646.8,242.8z M637.8,1027.9l0.7-12.2l0.4-8.1l21-0.2
	l0,0.4l0,0l0.7,19.9l-22.6,0.2v0L637.8,1027.9z M630,1028l-5.5,0.1l1.4-10.6l1.4-10.6l0.2,0.1l0-0.3l10,1l0,0.1h0l-0.4,8l-0.7,12.3
	L630,1028z M636,1029.5l-5.8,17.2l-7.1-1.8l1.4-15.2l5.3-0.1L636,1029.5z M616.7,898.6l18.4-0.7l2.8,38.1l-14.8-0.8l-4.7-26.3
	l-1.8-10l0.1,0L616.7,898.6z M605.2,830.5l21.9-1.7l4.6,28.2l-25-1.3l-1.5-24.7l0,0L605.2,830.5z M587.9,745.1l25.5,1.8l0,0.2l0.1,0
	l4.4,23l-25.2-0.6l-4.7-23.8l0.1,0L587.9,745.1z M582.4,61l-0.2-4l0-0.9l0.8-0.9l0.4-0.4l-0.1,2.8l-0.1,3.7L582.4,61z M583.3,62.3
	l0,2.1l-0.6,0.7l0,0l0,0l-0.2-3.8L583.3,62.3z M582.1,53.9l0-0.5l-0.2,0.3l-1.6-9.8l1.5-3l0.7,5.2l0.9,6.5L582.1,53.9z M566.5,238.3
	l33.5-10l-4.2,32.2l0,0v0l-3.2,0.7l-26.5,5.6l0.4-28.3l0.1,0L566.5,238.3z M593.4,262.5l2.3-0.5l-2,37.1l-0.2,4.1l-7.9,1.4l-20,3.5
	l0.4-39.8L593.4,262.5z M585,306.3l8.4-1.5l-2.4,32.7l-27,4.1l1.6-31.9l0,0l0-0.1L585,306.3z M562.3,343.4l-0.7,18.1l-0.6,15.2
	l-26.4,3l-0.1-33.6L562.3,343.4L562.3,343.4L562.3,343.4z M560.9,378.2L560.9,378.2L560.9,378.2l-1.4,49.6l0,0l-25,1.2l0-47.9
	L560.9,378.2z M534.6,430.6l24.9-1.2l-3.2,50.3l-21.7,0.8L534.6,430.6z M561,429.3L561,429.3L561,429.3l18.8-1.9l0,0l0.1,0l0.9,47.3
	l-8.7,1.8l-14.2,2.9L561,429.3z M579.9,425.8l-18.9,1.9l1.4-49.7l22.8-3.9l-3.2,30.7L579.9,425.8z M562.6,376.4l-0.1,0l0.6-15.1
	l0.7-18.2l0.5-0.1l26.4-4l-3.7,23.6l-1.5,9.7l0,0l0,0.1L562.6,376.4z M562.3,341.8l-27.9,2.7l0-31.9l29.5-2.7L562.3,341.8z
	 M534.6,482l21.6-0.8l0,0.2l0.1,0l1.9,52.2l-11.9,1.9l-11.9,1.9L534.6,482z M557.8,481l14.2-2.9l8.8-1.8l0,0.2l0,0l1.9,47.4l-23,9.3
	L557.8,481z M559.7,534.8l23-9.3l0,0.3l0.1-0.1l4.1,31.2l-26.5,10.2l-0.2-9.5l-0.5-22.7h0L559.7,534.8z M584.3,524.7l20.5-14.9
	l0,0.1l0.4-0.3l10.2,26.2l1.5,3.9l-24,14l-4.4,2.6L584.3,524.7z M584.2,522.9l-1.8-47.1l21.5-8.3l0.3,14.7l0.6,25.7L584.2,522.9z
	 M582.3,474.2l-0.9-47.1l19.1-2.9l0,0.1l0.2,0l1.8,25l1.2,16.6L582.3,474.2z M600.7,422.7l-19.2,2.9l2.2-21.1l3.2-30.6l18-0.7
	l-0.4,4.5L600.7,422.7z M587,372.4l5.3-33.5l19-0.5l-1.3,6.7l-5,26.4l-0.1,0l0,0.2L587,372.4z M592.5,337.4l0-0.1l-0.1,0l2.4-32.7
	l20.9-1.7l-0.4,3.1l-3.8,30.9L592.5,337.4z M595,303L595,303L595,303l0.2-3.3l2.1-38l19.7-3.9l-1.1,43.5L595,303z M597.4,260.1
	l4.2-32.3l26.7-4.2l1.6-0.3l-12.5,32.1L617,255l0,1.3L597.4,260.1z M626.9,222.3l-25,4l0-0.2l0,0l3.3-32.8l13.8-2.6l18.5-3.4
	l-6.9,34.4L626.9,222.3z M600.4,225.3l-0.1,1.3l-33.9,10.1l-2-22.9l0.2,0l-0.1-0.3l39.1-19.5L600.4,225.3z M541.8,134.2l5-1.5
	l0.1,0.2l0,0l2.1,4.6l-6.3,2.7l-0.2-1.3l-0.7-4.4h0L541.8,134.2z M544.2,75.2l0.8-0.1l0,0.1l0.3-0.1l0.5,1.4l-2.7,1.9l0,0l0-1.3
	l0-1.8L544.2,75.2z M543.5,73.8l0.1-0.2l0.6-1.7l0.5,0.1l0.5,0.1l0,1.5l-0.9,0.1L543.5,73.8z M557.2,88.9l-0.2-5.2l0.2,0l0,0
	l4.6,0.2l1.6,5.6l-5.9-0.6l0,0L557.2,88.9z M560.6,123.6l1.8,0l1.7,0l-1.3,4.5l-1.7-0.4l-1.5-0.3l0.6-3.7l0.4,0.1L560.6,123.6z
	 M542,153.6l0.1,0.3l-7.5,1.4l0-0.3l5-1.1l2.1-0.5l0,0.3L542,153.6z M542.9,141.7l1.3-0.5l5.4-2.3l1.2,3.2l-6.7,3.2l-0.9,0.4
	l-0.2-3.7l0.1,0L542.9,141.7z M534.4,113.9l4,0.1l0,1.9l0,0.6l-1.2,0l-2.9-0.1L534.4,113.9z M534.4,111.6l1-0.1l1.2-0.1l0.9,1
	l-0.4,0l-2.6,0L534.4,111.6z M537.6,110.3l-0.1-0.9l2.3-0.5l0.3-0.1l-1.1,2.9L537.6,110.3z M537.5,107.8l0-0.7l0-0.5l1.7-0.4
	l0.7,1.1L537.5,107.8z M537.3,100.7l-2.9-0.1v-5.7l1.9,0.1l1.5,0.1L537.3,100.7z M537,102.2l-0.3,1l-0.5,2l-1.2,0.1l-0.6,0l0-3.2
	L537,102.2z M534.9,106.8l0.9,0l0,0.2l0.2-0.1l0,0.4l0,0.7l-1.6-0.1l0-1L534.9,106.8z M535.9,109.5l0,0.2l0.1,0l0,0.2L535,110
	l-0.6,0l0-0.6L535.9,109.5z M537.2,118l1.3,0l0,0.4l-0.1,2l-0.1,0l0,0l-0.3,0l-3.6,0l0-2.6L537.2,118z M538.5,122l0.4,3.4l-4.5,0.3
	l0-3.7L538.5,122z M539,126.9L539,126.9L539,126.9l0.2,1.1l0.8,4.8l-5.7,0.3l0-5.9L539,126.9z M540,122l1.8,0l1,0v0l0.2,0l0.5,1.9
	l0.3,1l-0.3,0l-3.1,0.3L540,122z M539.9,120.5l0.1-2.3l2.6,0.4l0.4,0.1l-0.1,1l-0.1,0.9l-1.1,0L539.9,120.5z M543.4,117.1l-0.3-0.1
	l0,0l-3.1-0.4l0-0.1l0,0l0-2.4l4.5,0.8L543.4,117.1z M543.6,94.5l0.2-5.7l0.1,0v0l3.5,0.9l0,0.2l0.1,0l-0.7,5.5l-2.2-0.6L543.6,94.5
	L543.6,94.5L543.6,94.5z M547.3,73l-0.7,0.2l0-1.3l1.6-0.9l0.4,1.6L547.3,73z M548.9,74.2l0.2,1.4l0.1,0.9l-1.9-0.4l-0.5-1.4
	l0.4-0.1L548.9,74.2z M547,77.6l2.4,0.5l-0.3,3.2l-1.9-0.6l-3.1-1l1.1-0.7L547,77.6z M546.8,82.1l2.1,0.7l-1.1,5.5l-3.9-1l-0.6-6.3
	L546.8,82.1z M547.9,97.4l0.1,0l0-0.2l5.4,0.3l-1.5,5.2l-5.4-0.6L547.9,97.4z M551.3,104.2l-1.8,3.4l-0.8,1.5l-6-1.7l3.2-3.7
	l0.3,0.1l0-0.1L551.3,104.2z M534.7,160.8l9.5-1.3l1.5,4.6l-4.9,0.6l-6.1,0.8l0-4.4h0L534.7,160.8z M551.2,149.6l-0.1,0.5l0.8-0.6
	l0.2,0.5l-8.5,3.5l-0.1-0.4l0,0L551.2,149.6z M543.4,148.5l-0.1-1.2l8-3.8l0.1,0.2l0,0l0.4,0.9l-3.6,1.7L543.4,148.5z M552.6,151.4
	l0.1,0.3l0.2-0.2l0.8,1.1l1,1.3l-0.6,0.2l-9,3.5l-1.1-2.7L552.6,151.4z M553.2,148.5l1.4-1l4.6-3.2l-4.6,3.8l-1.2,1L553.2,148.5
	L553.2,148.5z M534.7,167l6.5-0.8l5-0.6l0.4,1.4l1.8,5.6l-13.7,2.3l0-7.4h0L534.7,167z M545.7,159.3L545.7,159.3l0-0.2l10-3.9
	l2.4,3.5l-10.9,5L545.7,159.3z M555.2,152l-1.1-1.4l2.6-2.2l5.5-4.6l0.2,0.3l0.3-0.4l0.9,0.6l0.4,0.3l-8,8.5L555.2,152z
	 M557.2,142.3l2.2-1.8l1.8-1.5l0,0.3L557.2,142.3z M553.1,143.7l-0.5-1.1l6.5-5.6l0.2,0.1l0.1-0.1l0.9,0.5l0.1,0.1L553.1,143.7z
	 M552.1,141.1l-0.6-1.5l-0.5-1.4l0,0l-0.1-0.2l4.6-3.7l0.2,0.2l0.1-0.1l2.1,1.6L552.1,141.1z M555.5,132l-0.3-0.4l-2.6-2.8l1.7-2.3
	l0.4,0.2l0,0l2.9,1.6L555.5,132z M548.3,119.7L548.3,119.7l1.4,0.3l0.2,0.7l-1.6,0L548.3,119.7z M547.4,117.8l-0.4-0.1l0,0.1l-2-0.4
	l1-2l2.7,0.9L547.4,117.8z M550.2,122.3l0.2,1.1l-1.2,0.5l-0.5-1.3l-0.1-0.3L550.2,122.3z M551.1,124.7l1.9,1.1l-1.4,1.8l-1.8-2.4
	L551.1,124.7z M553.6,124.3l-1.7-1l-0.1-0.8l0-0.2l2,0.2L553.6,124.3z M551.4,120.8L551.4,120.8L551.4,120.8l-0.2-0.9l1.3-0.4
	l0.2-0.1l0.1,0.1l0.6,1.5L551.4,120.8z M550.3,118.6l-1.3-0.4l1.1-1.3l0.9,0.8l0.5,0.4L550.3,118.6z M550,114.9l-0.1-0.1l-0.1,0.2
	l-0.3-0.1l-2.6-0.9l0.2-0.3l2.2-2.8l4,1.9L550,114.9z M547.7,110.4l-0.7,0.9l-1.7,2.2l-0.1,0l0,0.1l-5-0.9l1.5-3.9L547.7,110.4z
	 M544.5,119.6l0.1-0.8l2.3,0.4l-0.1,1.4l-0.4,0l0,0l-1.9,0L544.5,119.6z M546.9,122.2l0.8,2l-0.6,0.1l-1.8,0.4l-0.2-0.9l-0.4-1.7
	L546.9,122.2z M548.2,125.7L548.2,125.7L548.2,125.7l0.2,0l2.1,2.9l-3,1.9l-1.8-4.3L548.2,125.7z M551.4,129.9l0.2,0.2l0.1-0.1
	l2,2.3l0.8,0.9l-4.3,3.4l-2.1-4.6L551.4,129.9z M543.6,158l-9,1.2l0-1.9l0,0l0-0.4l7.9-1.5l0,0.2l0.1,0l0.2,0.6L543.6,158z
	 M534.7,202.2L534.7,202.2l0-0.2l24.1-2.1l0.7,2.4l3,10l-20,1.2l-7.9,0.5L534.7,202.2z M534.7,200.5l0-12.2h0v-0.3l5.2-0.7l13.6-2
	l4.8,13.2L534.7,200.5z M540.4,185.6l-5.7,0.8l0-9.7l0,0v-0.4l14.2-2.4l0.1,0.2l0.1,0l0.9,2.3l3,7.4L540.4,185.6z M549.9,172
	l-1.7-5.2l-0.4-1.4l0,0l-0.1-0.2l11.3-5.2l0.2,0.4l0.1-0.1l1.6,1.7l3.1,3.3l-11,5.3L549.9,172z M559.3,157.7l-2.1-3.1l0,0l-0.2-0.3
	l8.3-8.9l2,1.5l-5.9,8.1L559.3,157.7z M564.8,143.2l-0.3-0.2l-1.1-0.7l4.2-7l0.3-0.4L564.8,143.2z M564.3,134.9l2.8-4.3l0.1,0.1
	L564.3,134.9z M563,134.1l-1.5,2.4l-1.2-0.7l1.4-2.3l2.2-3.5l0.2,0l0-0.1l1.6,0.2L563,134.1z M560.6,129.2l1.6,0.4l-3.2,5.3
	l-2.3-1.8l0.8-1.3l1.6-2.8l0.3,0.2l0-0.3L560.6,129.2z M558.2,126.8l-3.2-1.7l0.1-0.8l0.2-1.5l1.3,0.2l2.1,0.4L558.2,126.8z
	 M556.4,121.5l-1-0.2l0-0.1l-0.3,0l-0.9-2.2l3.5-0.7l0.9,3.6L556.4,121.5z M553.6,117.6L553.6,117.6l-0.3,0l-0.6-0.5l-1.4-1.1
	l3.4-2.2l0.6,0.9l1.7,2.3L553.6,117.6z M554.7,111.8l-0.6-0.3l-3.9-1.8l0.1-0.1l-0.2,0l0.4-0.8l2.3-4.2l6.2,2l2.2,0.7l-2.9,2
	L554.7,111.8z M553.6,103.1l0.1-0.2l-0.2,0l1.5-5.3l0,0l2,0.1l6.2,0.4l-0.9,7.9L553.6,103.1z M554.7,93.2l-0.8,2.8l-5.6-0.3l0.4-2.8
	L549,90l2,0.1l4.4,0.2L554.7,93.2z M551,88.6l-1.8-0.1l1.1-5.2l0.1,0l0-0.2l5,0.4l0.2,5.3L551,88.6z M565.6,51.5l2.5-6.8l7.8,6.2
	l-3.1,4.5l-3-1.5l-4.3-2.1L565.6,51.5L565.6,51.5z M571.8,56.6l-3.5,3.9l-5.7-1.7l-0.1,0l2.4-5.5L571.8,56.6z M564.5,73.8l0.5,0
	l0.1,1.3l-1.3,0.3l-0.6-1.8L564.5,73.8z M562.9,72.1l-0.1-1l0-0.4l1.4,0.4l0,0.1l0.4,1.1l-0.8-0.1L562.9,72.1z M564.6,69.7l-1.5-0.4
	l1.1-1.6l0.3-0.5l1.9,1.6L564.6,69.7z M567.5,69.9l1.2,2.5l-0.9,0l-1.6,0l-0.6-1.5L567.5,69.9z M568,67.9l-0.8-0.6l-1.6-1.4l1.3-1.5
	l1.6-1.8l2.3,3.8l-0.5,0.3L568,67.9z M567.2,61.7l-2.8,3.2l-0.1-0.1l-0.2,0.3l-3.7-0.8l1.2-3.2l0.4-1L567.2,61.7z M563.2,66.5
	l-0.5,0.7l-1.1,1.6l-0.5-0.2l0,0.1l-1.6-0.3l0.3-1.8l0.1-0.9L563.2,66.5z M561.1,72l-1.4,0l-0.2-2l0.4,0.1l1.3,0.2l0,0.7l0.1,0.9
	L561.1,72L561.1,72z M561.6,73.6l0.6,1.9l0.1,0.3l-0.2,0l-1.5,0.3l-0.6-2.6L561.6,73.6z M559.9,61.3l-1,2.7l-0.1,0l0,0.2l-3.3,0.3
	l-1.7,0.1l-0.3-3.7l6.9-0.8L559.9,61.3z M558,72l-2.8,0l0-0.1l-0.1,0l-0.4-2.2l0.6,0l2.6,0.1l0.2,2.1L558,72L558,72z M550.9,78.3
	l0.2,0l0-0.2l1.4,0l1.8,0l0,0.1l0.1,0l0.1,0.3l0.8,3.5l-4.6-0.4L550.9,78.3z M550.4,73.9l3.4-0.3l0.2,2.3l0.1,0.8l-3.2,0L550.4,73.9
	z M558.1,68.2l-0.2,0l0,0.1l-3.3-0.1l0-0.2l0,0l-0.5-1.9l1.8-0.2l2.7-0.2l-0.2,0.9L558.1,68.2z M553.5,71.3l0.1,0.7l-1.3,0.1
	l-2.1,0.2l0-0.1l-0.1,0l-0.4-1.8l3.6-0.7L553.5,71.3z M555.4,74.2l-0.1-0.8h0.1l2.9,0l0.7,2.8l-3.4,0.3L555.4,74.2z M556.8,78
	l2.6-0.2l0,0.1l0.1,0l1.2,3.2l0.5,1.3l-4.4-0.2l-0.7-2.8l-0.3-1.2L556.8,78z M562.8,82.2l-0.5-1.4l-1.2-3.2l1.4-0.3l0.3-0.1l0,0
	l0.2,0l1.1,1.7l1.7,2.6L562.8,82.2z M565.5,78.4l-1-1.6l1.2-0.3l2.8,2l-1.6,2.2L565.5,78.4z M566.6,75.3l-0.1-1.4l0.3,0l0-0.1l2.3,0
	l-0.2,3L566.6,75.3z M569,69.5l-0.1-0.3l0.4-0.2l0,0l1.7-0.9l0.5-0.3l0.8,3l0.4,1.6l-2.2,0L569,69.5z M572.1,65.6l-0.4-0.7l-2.1-3.5
	l0.1-0.1L570,61l2.8-3.1l2,6L572.1,65.6z M574.4,58l-0.5-1.4l0.4-0.4l-0.1-0.1l1.2-1.8l1.1-1.6l1.3,7l-1.9,2.8L574.4,58z
	 M568.6,43.2l2.7-7l0.4-0.9l4.2,5.2l2.8,3.5l-0.9,2.3l-1.2,3.3L568.6,43.2z M567.4,42.2L567.4,42.2l-0.1,0.3l-10.7-2.8l1-3.3
	l2.2-7.2l10.8,5L567.4,42.2z M566.7,44l-2.7,7.4l-9.3-0.9l0.8-5l0.7-4.2L566.7,44z M563.4,52.9l-2.4,5.5l0,0l-0.1,0.2l-7.4,0.8
	l0.2-1.9l0.7-5.5L563.4,52.9z M554.1,44.7l-0.9,5.7l0,0l0,0.1l-8.7,0.7l1-10.8l9.3,0.6L554.1,44.7z M549.3,69l-0.1-0.3l-0.3,0.2
	l-0.2-0.3l-0.4-0.6l3.2-1.2l0.9-0.3l0.4,1.9L549.3,69z M552.1,65l-4.5,1.7l-0.1,0l-0.2-0.2l-0.2,0.1l-3.2-2.7l8-2.6l0.2,3.5l-0.1,0
	L552.1,65z M547.1,68.8l0.3,0.5l0.2,0.3l-0.2,0.1l-1.7,1l0,0l-0.5-0.2l1.3-1.2L547.1,68.8z M543.4,96.1l0.5,0.2l2.5,0.7l-1.4,4.9
	l-2.2-0.7l0.2-0.3l-0.4,0l0.2-1.5L543.4,96.1z M544.3,103.2l-2.9,3.4l-0.1-0.1l-0.8-1.1l1.6-2.8L544.3,103.2z M538.9,100.7l0.6-5.4
	l2.5,0.4l-0.5,3.3l-0.3,1.8l-2.1-0.1l0,0L538.9,100.7z M541.7,81.2l0.5,5.6l-1.6-0.4l-1.6-0.4l-0.2-5.8l1,0.1l1.7,0.2l0,0.8
	L541.7,81.2z M539.5,93.7l-0.4-6.1l1.6,0.4l1.6,0.4l-0.2,5.8l-2.3-0.4l-0.2,0l0-0.1L539.5,93.7z M541.8,73.9l-3.1,0l0.4-1.7l0.3-1.1
	l3.3,0.5L541.8,73.9z M541.3,75.4l-0.1,0.2l0.4-0.1l0,0.7l0,2.6l-0.1,0l0,0.2l-1.7-0.2l-1-0.1l0-0.1l0,0l-0.2-3.2L541.3,75.4z
	 M538.6,102.3L538.6,102.3l1.9,0.1l-1.4,2.4l-1.2,0.3l0.5-2L538.6,102.3z M536.7,93.5l-2.2-0.1l0-6.5l3.2,0.4l0.4,6.3L536.7,93.5z
	 M537.5,85.7l-3.1-0.3l0-5.4l3,0.1l0.2,5.5l0,0L537.5,85.7z M534.3,78.5l0-3l2.7,0l0.2,3.1l0,0.1L534.3,78.5z M534.3,134.7l6-0.3
	l0.6,4l0.3,2.1l-6.9,1L534.3,134.7z M540.8,128.3l-0.2-1.5l3.5-0.3l0.1,0l0,0.1l0.1,0l1.9,4.6l-4.6,1.4L540.8,128.3z M542,150.7
	L542,150.7l-1.5,0.4l-6,1.2l0-0.3l7.6-1.4L542,150.7z M534.6,215.7L534.6,215.7l0-0.1l8-0.5l20.2-1.2l2,23.1l-30.5,2.2L534.6,215.7z
	 M564,212l-2-6.6l-1.7-5.6l0.1,0l-0.1-0.3l13.6-6.2l18-8.2l11,7.4L564,212z M572.9,192.1l-13.1,6l-1.5-4.1l-3.3-9l0,0l0-0.1
	l18.6-5.1l6-1.6l0.4,0.3l0.1-0.1l3,1.7l7.3,4.2L572.9,192.1z M570.8,178.9l-16.4,4.5l-2.5-6.2l-1.6-3.9l1.9-0.9l12.8-6.2l0.3,0.3
	l0.1-0.1l12.7,10.4L570.8,178.9z M565.1,164.1l-3.1-3.3l-1.8-2l3.1-4.2l5.1-7l0.4,0.3l0-0.3l2.2,0.9l3.1,1.3L565.1,164.1z
	 M567.7,145.3l-1.4-1l0.1-0.1l-0.3-0.2l1.2-3.3l1.7-4.5L567.7,145.3z M567.9,129.3L567.9,129.3l0.2-0.4l-0.2,0l2-5l0.4-1.1l0.5-0.1
	l0.2,0l0,0.2L567.9,129.3z M569.1,121.4l-3.2,0.6l0-5.6l0.1,0l4.4-1L569.1,121.4z M566.2,123.5l2.3-0.4l-0.2,0.4l-2.1,5.2l-0.6-0.1
	l-1.3-0.2l1.3-4.7l0.2,0l0-0.1L566.2,123.5z M564.4,122.1l-1.9,0l-2.3,0l-0.9-3.8l-0.1-0.3l0.4-0.1l0,0l4-0.9l0.8-0.2L564.4,122.1z
	 M558.6,116.5l-2.1-2.8l-0.6-0.8l0.5-0.3l0,0l3-2l3.2-2.2l1.7,6.9L558.6,116.5z M563.5,93l-0.1,3.6l-5.9-0.3l-2-0.1l0,0l0.8-2.8
	l0.8-2.9l6.6,0.6L563.5,93z M563.3,83.9l0.1,0l-0.1-0.2l3.3-0.7l3.4,5.6l-5.1,0.9L563.3,83.9z M565,93l0.1-1.9l0.3,0l-0.1-0.3
	l5.4-0.9l1.6,6.4l-7.3,0.2L565,93z M568.2,82.6L568.2,82.6l-0.3-0.5l1.8-2.6l0.2,0.2l3.4,3.4l-2.2,4.4L568.2,82.6z M570.8,78.4
	l-0.1-0.1l0.1-0.1l-0.3-0.2l0.2-4l0.5,0l0,0l0.8,0l1,0l0.2,3.4l0.3,3.7L570.8,78.4z M572.8,67.1l0.2-0.1l0-0.1l2.3-1.5l0.5,2.4
	l0.9,3.9l-2.5,0.6l-0.6-2.2L572.8,67.1z M574.5,73.7l2.3-0.6l0.8,7.6l-2.7,1.1l-0.3-3.9l-0.3-4l0.2,0L574.5,73.7z M577,66.6
	l-0.5-2.1l0,0l-0.1-0.2l1.6-2.3l0.8,7.2l-1,1.3L577,66.6z M577.7,50.9l0.2-0.3l-0.1-0.1l0.7-1.8l0.7-2l1.4,8.8l-1.3,1.9l-0.1,0.2v0
	l-0.1,0.2L577.7,50.9z M579.7,59.6l1-1.5l0.1,1.6l0.3,7.1l-0.4,0.5l-0.3,0.4l0-0.2l0,0.1l-0.8-6.7l-0.1-0.7L579.7,59.6z M580.8,69.3
	l0.3-0.4l0.2,8.2l-0.2,0.2l-0.3-3.3l-0.4-4.4L580.8,69.3z M579.9,41.3l-0.1-0.5l-0.5,1.5l-3-3.7l-4-4.9l0.1-0.3l0,0l2.3-6.3
	l6.6,11.1l0.1,0.1L579.9,41.3z M571,32.7l-10.9-5l0-0.1l0,0l1.3-4.6l1.5-5.3l10.6,7.9L571,32.7z M560.1,22.3l-1.4,4.9l-10.8-2.6
	l0-0.1l0,0l0.9-8.2l0.4-3.8l12.4,4.3l0.1,0L560.1,22.3z M557.2,28.4l1.1,0.3l-2.2,7.2l-1,3.4l-0.1,0l0,0.1l-9.3-0.6l2-12.6
	L557.2,28.4z M544.1,38.7L544.1,38.7L544.1,38.7l-3.9,0l-5.9-0.1l0.1-13.8l11.7,1.1L544.1,38.7z M544.3,52.8L544.3,52.8L544.3,52.8
	l8.6-0.7l-0.7,5.6l-0.2,1.9l-0.1,0l0,0.1l-8.5,2.8L544.3,52.8z M546.1,67.6l-0.7,0.7l-1.9,1.7l-0.3-0.1l0,0.1l-3.1-0.4l2.7-4.8
	L546.1,67.6z M542.4,56l-0.7,6.8l-4.7-0.2l-2.7-0.1l0-9.2l8.4-0.4L542.4,56z M534.3,63.9l3.3,0.2l3.6,0.2l-2.8,5.1l-0.2,0l0,0.1
	l-3.9-0.1L534.3,63.9z M534.6,70.9l3.2,0.1l-0.5,2.2l-0.2,0.7l-0.2,0l0,0l-2.6,0l0-3L534.6,70.9z M534.3,143.2l7.1-1.1l0.3,4
	l-7.4,1.3L534.3,143.2z M541.8,147.7l0,0.3l0,0l0.1,1.1l-7.6,1.4l0-1.3l0-0.2L541.8,147.7z M534.4,240.7l30.5-2.2l-0.4,28.5
	l-30.2,1.9l0-5.4L534.4,240.7z M564.4,268.5l0,0.1l0,0l-0.4,39.7l-29.6,2.8l-0.1-40.7L564.4,268.5z M534.4,538.8l11.9-1.9l11.9-1.9
	l0.6,22.9l0.2,9.5l-8.8,1.2l-15.9,2.2L534.4,538.8z M560.4,568.9l0.1,0l0-0.1l26.7-10.3l0,0.2l0.1-0.1l1.4,6.3l6.2,27.2l-40.1,7.7
	L560.4,568.9z M595.3,593.6l0.8,3.6l6.6,31.3l-36,3.3l-8.3-21.7l-3.4-8.8L595.3,593.6z M567.2,633.3l35.7-3.3l1.1,8.7l3.9,30.1
	l-36.3,1.2l-4.6-36.5l0.3,0L567.2,633.3z M608.1,670.3l0.5,5.9l2.7,32.6l-32.3-1l-7.1-36.2l0-0.1L608.1,670.3z M611.5,710.4
	l0.7,13.1l1.2,21.8l-25.8-1.8l-1.2-4.8l-7-29.4L611.5,710.4z M618.1,771.6l2.9,28.1l-18.1-0.4l-7.7-22.2l-2.1-6L618.1,771.6z
	 M603.5,800.8l17.7,0.4l0,0.1l0.1,0l5.5,26l-1.6,0.1l-20.1,1.6l-1.7-26.3l-0.1-1.5l0.4,0.2L603.5,800.8z M631.9,858.5l2.8,34.3
	l0.3,3.7l-18.7,0.7l-3-12.9l-6.3-27L631.9,858.5z M623.5,936.8l14.6,0.8l0.2,6.8l1,34.6l-12.9-0.8l-1.7-23.1l-1.3-18.1l0.1,0
	L623.5,936.8z M640.9,980.5l12.2-0.6l7-0.3l0,0.5l0,0l-0.2,25.9l-0.7,0l-20.2,0.2l0.1-1.5L640.9,980.5L640.9,980.5L640.9,980.5z
	 M625.3,990.3l0.5,14.2l-3.5-1.6l-1-24.9l3.6,1.5L625.3,990.3z M627.4,1005l-0.5-14.6l-0.4-10.3l0,0l0-0.3l7,0.4l5.8,0.4l-1.5,22.1
	l-0.2,3.4L627.4,1005z M660.2,978.1l-7,0.3l-12.3,0.6l-1-34.2l-0.2-7.2l0,0l0-0.1l21.7-1.4l0,0.3l0,0l-0.1,3.6L660.2,978.1z
	 M639.5,936.1l-2.8-38.2h0l0,0l26.3-1.6l-1.6,38.3L639.5,936.1z M636.6,896.4l-0.1-1.8l-3-36.1l0.1,0l0-0.1l15.2-1l12-0.8l0.6,10.4
	l1.6,27.6L636.6,896.4z M648.3,856l-15,1l-4.7-28.3l27-1.4l5,28L648.3,856z M641.4,826.4l-13.1,0.7l0,0l0,0l-5.5-26l27.2-2.5l0,0.5
	l0.2-0.1l5.1,26.7L641.4,826.4z M650.2,774.9l-0.1,22.2l-27.4,2.5l-2.9-28l0.1,0l0-0.1l30.5-3.8L650.2,774.9z M619.9,769.9l-0.4,0.1
	l-4.4-23.2l27.8-4l-0.1,1l0.6-0.5l5.4,18.8l1.2,4.2L619.9,769.9z M643.1,741.2l-28.3,4.1l-1.2-21.8l-0.7-13h0l0-0.1l10.8-1.1
	l24.3-2.5l-3.6,24.7L643.1,741.2z M622.8,707.8l-9.9,1l-2.8-33.6l-0.4-5l0,0l0-0.1l39.2-5.4l-0.2,11.6l-0.5,28.8L622.8,707.8z
	 M609.5,668.6l-4-30.8l-1-8l0.1,0l0-0.1l9.4-2.2l29.1-7l5.9,42.7L609.5,668.6z M614.7,625.7l-10.5,2.5l-6.6-31.3l-0.8-3.6l0,0l0-0.1
	l31.7-13.5l2.5-1l6.7,23.3l4.9,17.1L614.7,625.7z M596.5,591.6l-6.3-27.7l-1.4-6.2l4.2-2.5l24.4-14.2l13.1,36L596.5,591.6z
	 M616.3,534l-9.9-25.4l13.7-11.5l0,0.5l0.4-0.5l3.4,14.3l3.7,15.4l-2,2.5l-7.5,9.2L616.3,534z M606.2,506.8l-0.6-25.5l-0.3-14.3l0,0
	l0,0l14.6-6.3l0.1,34.5L606.2,506.8z M605.2,465.4L604,449l-1.8-25l9-1.9l3.9-0.8l0,0.4l0.3-0.1l2.2,18.5l2.3,19L605.2,465.4z
	 M615.2,419.8l-3.9,0.8l-9.1,1.9l3.9-46.1l0.3-3l12.4,2.3l0,0.1l0.1,0L615.2,419.8z M606.6,371.9l6.1-32.3l0.2-1l13.8,4.6l-7.5,31
	L606.6,371.9z M613.1,337.1l0.1-0.3h-0.1l3.5-28.6l0.6-5.2l14.2,4.1l-4.6,34.5L613.1,337.1z M617.5,301.5l0-0.3l-0.1,0l1-42.4
	l1.9,2.1l11,12l0,0.2l0,0l0.2,30.7l0,1.7L617.5,301.5z M631.4,270.8l-12.8-14.1l12-30.9l0.2,3.2l1.5,23.6l-0.5,0.3l0.5,0.4
	L631.4,270.8z M645.8,215.1l-13.6,6l6.9-34.1l14.1-1l-4.8,27.8l-0.1,0l0,0.2L645.8,215.1z M654.7,186l14.6,0.6l-4.1,25.1l-0.1,0
	l0,0.3l-15.1,1.6L654.7,186z M675.9,214.9l-9.3-2.7l4.2-25.3l16.4,4.8l2.5,0.7l-4.4,19.6l-1.1,5l0,0l0,0.2L675.9,214.9z
	 M686.5,213.1l4.5-20l13.2,7.9l0,0.1l0.1,0l-0.5,2.3l-4.9,21.1l-0.3-0.2l-13-6.6L686.5,213.1z M705.2,203.8l0.5-2.2l8.2,2.9l9.6,3.3
	l0,0.1l0.1,0l-0.8,3.6l-3.2,15.5l0,0l0,0l-6.8-0.8l-12.4-1.4L705.2,203.8z M724.1,212.1l0.8-3.9l18.6,3.4l-2.8,14.3l-0.8,4.3
	l-18.6-2.9l-0.4-0.1L724.1,212.1z M742.4,225.9l2.7-13.9l17.1,4.4l-2.9,16.5l-1.4-0.2l-16.3-2.2L742.4,225.9z M776.7,231.4l1.9-9.9
	l0,0l0-0.1l4.9,0.9l2.6,0.5l0,0.1l0.2,0l-3.3,13.7l0,0l0,0.1l-7.2-0.6L776.7,231.4z M787.9,222.9l4.6,0.3l8.8,0.6l-4.2,16.6l0,0l0,0
	l-10.3-2.9l-2.2-0.6L787.9,222.9z M802.8,224l17.6,3.7l-5.4,18.1l0,0l0,0l-16.4-4.9L802.8,224z M821.9,228.1l16.7,5l-2.9,9.1l-3,9.5
	l-5.7-1.9l-10.6-3.5L821.9,228.1z M833.8,253.6l17.6,5.8l0,0.1l0.1,0l-2.8,14.8l-12.9-3.5l-5.6-1.5L833.8,253.6z M834.3,252.1l3-9.5
	l2.8-9l17.4,6.9l0,0l0.2,0.1l-5.7,17.4L834.3,252.1z M859.1,241l23,8.3l0,0.1l0.2,0.1l-4.6,14.1l-17.5-3.7l-6.8-1.4L859.1,241z
	 M883.7,249.8l11.3,3.2l12.3,3.4l-3.7,12l-0.1,0l0,0.1l-24.3-4.7L883.7,249.8z M908.8,256.9l21.4,8l-2,8.4l-0.3,1.2l-0.2-0.1l0,0.1
	l-1.1-0.3l-21.4-5.5L908.8,256.9z M929.2,276.6l19.4,6.3l0.4,5.8l-20.1-4.2L929.2,276.6z M948.8,281.2l-0.3-0.2l0,0.3l-19.1-6.2
	l0.8-3.4l1.4-6.2l19.1,7.5L948.8,281.2z M913.6,248.7l20.4,8.5l-2.4,4.6l-0.8,1.5l-0.2-0.1l0,0l-21.1-7.9l2.8-4.7L913.6,248.7z
	 M889.4,240.5l22.7,7.7l-0.8,1.4L908,255l-0.2-0.1l0,0.1l-12.6-3.5l-10.8-3l0.5-0.8L889.4,240.5z M865.7,229.8l22.2,10l-2.7,4.3
	l-2.4,3.8l-23.2-8.3l4.2-6.9L865.7,229.8z M846.5,221.8l17.8,7.4l-1.7,2.9l-4.3,7l-17.6-7l0.6-1.1L846.5,221.8z M827.6,217l17.4,4.3
	l-5.5,9.7l-0.3,0.5l-0.1-0.1l0,0.1l-16.6-4.9l1.2-2.2L827.6,217z M807.7,213.3l18.4,3.5l-3.7,6.9l-1.4,2.6l-0.1,0l0,0.1l-17.5-3.7
	L807.7,213.3z M791.8,213.1l14.3,0l-4.3,9l-0.1,0l0,0.1l-8.7-0.6l-4.5-0.3L791.8,213.1z M780.4,211.6l9.7,1.4l-2.9,7l-0.5,1.2
	l-3.3-0.6l-4.6-0.8l0.7-3.9L780.4,211.6z M765.3,208.5l0.1-0.3l13.5,3.2l-0.8,4.3l-0.7,3.8l-9.4-2.9l-4.1-1.3L765.3,208.5z
	 M747.5,203.4l16.5,4.4l-0.2,0.7l-1.4,6.4l0,0l0,0l-17-4.4L747.5,203.4z M727.7,199l18.3,4l-2,7.1l-0.1,0l0,0.1l-18.5-3.4L727.7,199
	z M709.8,189.1l16.5,9.4l-2.4,7.9l-9.7-3.4l-8-2.8l3.3-10.1L709.8,189.1z M695.1,180l13.3,8.3l-0.3,0.9l-3.4,10.4l-13.3-7.9
	L695.1,180z M674.1,173.8l19.6,5.5l-3.6,11.5l-0.1,0L690,191l-2.3-0.7l-16.6-4.9L674.1,173.8z M658.5,171.7l14.1,1.8l-3,11.5l-0.1,0
	l0,0.2l-14.5-0.6l0.3-1.2L658.5,171.7z M644.3,169.9l12.6,1.6l-3,11.2l-0.5,1.8l-0.1,0l0,0.1l-13.9,1L644.3,169.9z M619.8,166.6
	l23,3.2l-4.9,15.9l-0.1,0l0,0.1l-18.4,3.4l-13.5,2.5L619.8,166.6z M604.5,167.3l13.5-0.7l-0.9,1.6l-13,23.4l-10.6-7.1l0.1-0.1
	l-0.6-0.3L604.5,167.3z M602.8,167l-11,16.2l-7.4-4.3l-3.5-2l5.4-8.5l3.1-4.9L602.8,167z M588,162.9l-3.1,4.9l-5.3,8.3l-13.3-10.9
	l9.2-14.4L588,162.9z M574.2,148.3l-2.9-1.2l-2.2-0.9l1.7-11.2L574.2,148.3z M571.2,121.1l-0.3,0l0-0.1l-0.2,0l1.1-4.9L571.2,121.1z
	 M571.3,110.3l-0.5,3.5l-4.8,1.1v0l-0.2,0l-1.7-7.2l4.6-0.5l3.2-0.3L571.3,110.3z M572,105.3l-3.4,0.4l-4.6,0.5l0.9-7.9l0.1,0l0-0.1
	l0.1,0l7.4-0.2L572,105.3z M574.7,108.5l-2.1,3.2l0.3-1.7l0.5-3.2l0.1,0l0-0.1l1.7-0.3L574.7,108.5z M575.4,104.7l-1.9,0.4l0.4-7.2
	l0.3,0l-0.1-0.4l2.1-1.2l0,0L575.4,104.7z M575.9,94.8l-2.1,1.2l-1.6-6.2l0.3,0l-0.4-0.6l2-3.9l2.1,9.4L575.9,94.8z M577.4,93
	l-2.2-9.6l0.3-0.1l2.3-1l0.3,9.5L577.4,93z M578.4,72.8L578.4,72.8l0-0.4l0.8-1l0.3,3.9l0.3,3.6l-0.2,0.2l-0.5,0.5L578.4,72.8z
	 M579.8,89.6l-0.2,0.2l-0.3-8.2l0,0l0-0.2l0.3-0.3l0.2-0.2L579.8,89.6z M584.7,65l0-0.1l0.3-0.5l2.3,2.8l-0.5,7.2l0.4,0.9l-0.7,6.7
	l-2,11.3l0,0l-1.6,7l-1.8,0.5l-1,1.5l-0.4,0.3l0.8-3.5l0,0l1.5-10.9l0.4-1.8l0.6-1.3l1.3-6.3l-0.1-3.3l0.5-2.8l-2.1,2.6l-0.2-8.1
	L584.7,65z M583.1,38.3l0.1-0.3l1.2,9.8l0,0.3l-0.3-1.9l-1.1-7.8L583.1,38.3L583.1,38.3z M576.7,22.2l6,10.7l0.2,2l-0.7,1.8
	l-6.8-11.4L576.7,22.2z M564.9,12.6l0.4-1l10.4,9.1l-0.1,0.2l-1.2,2.8l-0.1-0.1l-0.2,0.5l-10.6-8L564.9,12.6z M550.7,4.9l13.3,5.8
	l-0.2,0.4l-1.5,4l-0.1-0.1l-0.1,0.3l-9.8-3.4l-2.8-1L550.7,4.9z M534.3,1.8l15,2.7l-1.2,6l-0.1,0l0,0.2l-13.6-2V1.8z M534.3,10.2
	l13.5,2l-0.3,2.7l-1.1,9.5l-11.9-1.2l0.1-7h-0.2V10.2z M534.3,40.2l6.1,0.1l3.5,0.1l-1,11l-7.5,0.3l-1.1,0l0-9.6L534.3,40.2z
	 M534.3,589.9l0.1-17.4l15.7-2.2l8.8-1.2l-5.5,30.8l-7.9,0.4l-11.1,0.5L534.3,589.9z M534.7,602.6l-0.1-0.2l14.3-0.7l-4.3,1.6
	L534.7,602.6z M545.6,604.6l7.9-2.9l3.8,10l7.6,19.9l-17-2.3L545.6,604.6z M548.2,630.9l17.2,2.3l4.6,36.5l-14.5-2.9L548.2,630.9z
	 M556,668.5l14.3,2.9l0,0.1l0,0l0.1,0.5l7,35.5l-11.3-3.2l-0.6-0.2L556,668.5z M566,705.9L566,705.9l11.7,3.3l0,0.1h0l6.5,27.3
	l1.5,6.3l-0.4-0.2l-9.1-4.5L566,705.9z M576.7,740.1l7.8,3.9l1.7,0.9L591,769l-9.1-3.7L576.7,740.1z M582.6,767.2l8.8,3.6l0,0.2
	l0.1,0l2,5.8l7.6,21.9l-7.1-2.8L582.6,767.2z M594.3,797.6l7.4,2.9l0.1,1.7l1.7,26.3L596,825L594.3,797.6z M596.2,826.8l7.4,3.4
	l0.1,0l1.6,25.2l-6.3-1.2L596.2,826.8z M599.2,855.8l6.1,1.2l0,0.1l0.1,0l9.3,39.6l-7.5-2.7L599.2,855.8z M607.6,895.8l7.5,2.7
	l1.8,10.3l4.7,26.2l-7.8-2.2L607.6,895.8z M614.1,934.4l7.8,2.2l3,41.2l-3.7-1.5L614.1,934.4z M622.1,1004.5l3.7,1.6l-1.4,10.9
	l-1.4,10.8l-5.4-1L622.1,1004.5z M621.8,1041.4l-3.9-12.9l5,1l0,0.2h0L621.8,1041.4z M625.5,1074.4l-2.3-8.2l-0.3-19.8l6.8,1.8
	L625.5,1074.4z M672.5,1044.6l1.1,0.8l26.5,31.3c3.6,5,4.6,11.1,2.6,15.3c-1.5,3-4.4,4.6-8.5,4.6c-0.7,0-1.5,0-2.2,0.1l-3.8-13.8
	c-0.1-0.4-0.5-0.6-0.9-0.5c-0.4,0.1-0.6,0.5-0.5,0.9l3.7,13.5c-1.9,0.2-3.9,0.5-5.7,0.7c-2.6,0.4-5,0.7-7.5,0.9l-2.3-13.7
	c-0.1-0.4-0.5-0.7-0.9-0.6c-0.4,0.1-0.7,0.5-0.6,0.9l2.2,13.5c-0.2,0-0.4,0-0.7,0c-1.8,0-3.6,0-5.4,0c-3.5,0-7.1,0-10.7-0.2
	l-1.1-13.6c0-0.4-0.4-0.8-0.8-0.7c-0.4,0-0.7,0.4-0.7,0.8l1,13.4c-3.1-0.2-6.2-0.4-9.3-0.9c-1.3-0.2-2.9-0.3-4.6-0.5
	c-0.8-0.1-1.7-0.1-2.6-0.2l1-13.4c0-0.4-0.3-0.8-0.7-0.8c-0.4-0.1-0.8,0.3-0.8,0.7l-1,13.3c-4.9-0.6-10-1.6-11.9-4.6
	c-1.6-2.5-1.3-7.7-1.1-11.5c0-0.9,0.1-1.7,0.1-2.4l4.9-30.2l6.2-18.3l23.2-0.2l0,0.2l0.4-0.1l11.2,14.4L672.5,1044.6z M671.8,1040.5
	l-9-11.6l6.7-1.6L671.8,1040.5z M669.3,1025.9l-7.1,1.6l-0.7-20.4l3.2-1.3l3.2-1.3L669.3,1025.9z M667.7,1002.9l-3.1,1.3l-3.1,1.3
	l0.2-26.2l2.9-1.5L667.7,1002.9z M664.5,976.1l-2.8,1.4l1-38.2l0.1-3.5l6.2-2.2L664.5,976.1z M669.2,932l-6.3,2.2l1.6-38.1l0.1,0
	l0-0.1l10.9-1.7L669.2,932z M675.7,892.9l-11.2,1.7l-1.7-28.6l-0.6-9.4l0.1,0l0,0l15.8-1.7L675.7,892.9z M678.1,853.3l-16,1.8
	l-5-27.9h0l0-0.2l10.6-4.1l5.6-2.2L678.1,853.3z M672.9,819.1L668,821l-11.2,4.4l-5.1-27.2l8.5-4.8L672.9,819.1z M659.7,792
	l-8.1,4.5l0.1-21.6l0-7.3l0.2,0l-0.1-0.3l5.6-3.7L659.7,792z M657.2,761.8l-5.8,3.9l-1.2-4.2l-5.5-19.3l5.2-4.4L657.2,761.8z
	 M649.6,736l-4.7,4l1.2-8.1l3.7-25.4l0.1,0l0-0.2l6.1-3.1L649.6,736z M656.2,701.3l-0.8,0.4l-5.6,2.8l0.5-28.9l0.2-11.2l0.1,0l0-0.2
	l7.3-3.8l0.2-0.1L656.2,701.3z M658.1,658.6l-0.6,0.3l-7.1,3.8l-5.8-42.3l0-0.2l0.1,0l0-0.2l12.1-6.1L658.1,658.6z M656.5,612.1
	l-12.4,6.3l-4.9-17l-6.8-23.4l0,0l0-0.1l15.4-8.1L656.5,612.1z M631.9,576.5l-13.1-36.1l0,0l-0.1-0.2l7.4-9.1l1.9-2.3l0.3,1.2
	l0.2-0.8l5.2,10.8l13.6,28.4L631.9,576.5z M638.8,533.3l7,28.3l-10.3-21.4l-6.4-13.3l6.2-19.5L638.8,533.3z M635,504l-4.2,12.9
	l-2.3,7.3l-3.7-15.4l-3.1-13.1l10.5-12.9L635,504z M631.9,480.7l-7.6,9.3l-2.7,3.3l-0.1-33.3l0.1,0l0-0.1l11.9-6.7L631.9,480.7z
	 M633.4,451.5l-12.1,6.8l-2.3-18.9l-2.2-18.6l2.6-1.4l6.3-3.3L633.4,451.5z M625.5,414.5l-6.5,3.5l-2.2,1.1l3.6-43.1l7.6,0.8
	L625.5,414.5z M628.3,375.2l-7.6-0.8l7.4-30.7l0.1,0l0-0.1l7.8,1.4L628.3,375.2z M636.4,343.5l-4.9-0.9l-3.1-0.6l4.6-34.5l0.1,0
	l0-0.1l9.1,1.7L636.4,343.5z M642.4,307.7l-9.3-1.8l0-1.1l-0.2-31l11.2,5.7L642.4,307.7z M644.3,278.1l-11.4-5.8l0.9-17.6l12.9,10
	L644.3,278.1z M647.3,244.3l2.1,6.2l1.3,3.9l-3.5,8.7l-12.8-9.9 M663.2,239.3l1.3,4.4l0.8,2.8l-13.4,6.8l-1.3-3.8l-2-6l0.6-0.2
	 M666.9,246.2l-0.8-2.6l-1.3-4.2l14.9,2.8l0.9,4.5L666.9,246.2z M682.2,246.9l-0.8-3.9l0-0.2l2.5,1l10.3,4.2l0,0.2l0.3,0l0.1,0.6
	l0.4,2L682.2,246.9z M694.5,246.4l-10.3-4.1l-2.9-1.2l1.7-9.3l2.2-12.5l12.5,6.3l0.8,0.4l-0.1,0.2l0,0L694.5,246.4z M696.5,251.2
	l-0.2-1.2l-0.3-1.6l8.1,1.1l10.8,1.5l0,0l0.1,0l0,2.8l0,1L696.5,251.2z M715.1,249.5l-19.2-2.7l4-20.3l12.4,1.4l6.7,0.8l-0.4,2.4
	L715.1,249.5z M735.6,257.6l-19-2.5l0-1.2l0-2.7l19.2,2.4l0,0.1l0.1,0L735.6,257.6z M736,252.1l-12.7-1.6l-6.6-0.8l4-20.9l19,3l0,0
	l0,0L736,252.1z M754.4,257.4l-17.3,0.3l0.2-4l17.9-0.7L754.4,257.4z M755.5,251.4L755.5,251.4L755.5,251.4l-18,0.7l3.7-20.1
	l16.3,2.2l1.4,0.2l-1,5.2L755.5,251.4z M769.6,256.5l-13.6,0.8l0.8-4.4l13.7-0.3L769.6,256.5z M757.1,251.4l2.5-12.8l0.8-4l12,2.3
	l1.6,0.3l-1.2,5.4l-1.9,8.5L757.1,251.4z M771.1,256.4l0.9-3.8h0l0,0l8.6-0.6l0.7,4.3L771.1,256.4z M780.7,250l-0.4-0.2l0.1,0.6
	l-8,0.6l1.9-8.1l1.2-5.4l0,0l0-0.1l7.2,0.6L780.7,250z M782.8,256.6l-0.6-4.1l2.6,1.2l8.8,4.1l0,0l0.2,0.1l0.6,5.2L782.8,256.6z
	 M793.9,256.2l-10-4.7l-1.8-0.8l2.1-11.8l0.1-0.5l2.5,0.7l10,2.8l-0.1,0.7L793.9,256.2z M795.9,263.9l-0.6-5.5l14.9,5.7l0,0l0.2,0.1
	l0.2,5.9L795.9,263.9z M810.6,262.6l-8.5-3.3l-6.7-2.6l2.9-14.5l16.4,4.9L810.6,262.6z M812.2,270.8l-0.1-2.5l-0.1-3.5l16.4,5.6l0,0
	l0.2,0.1l0.1,1.1l0.6,5.1L812.2,270.8z M828.7,268.8l-16.6-5.7l4-15.5l9.9,3.3l6.4,2.1l0,0L828.7,268.8z M830.9,277.2l-0.5-4.4
	l-0.2-1.9l5.9,1.6l12.4,3.3l0,0.1l0.3,0l1.4,6.5L830.9,277.2z M853,259.8l6.5,1.4l17.7,3.8l0,0l0.1,0l-0.6,4.2l-1.2,8.2l-0.4,0l0,0
	l-14.4-1.6l-10.6-1.2L853,259.8z M851.7,282.8l-1.4-6.7l10.7,1.2l14.6,1.6l1.5,6.2L851.7,282.8z M878.7,285.3l-1.5-6.2l6.8,0.9
	l17.9,2.3l1.2,5.5L878.7,285.3z M903.1,271.9l-1.2,8.8l-0.3,0l0,0l-16.7-2.1l-7.8-1l1.2-8l0.6-4.3l24.5,4.7L903.1,271.9z
	 M903.4,280.9l1.1-8.1l0.3-2.5l22.2,5.7l0.7,0.2l-0.3,8.1l-0.5-0.1l0,0.1l-12.4-1.7L903.4,280.9z M904.7,287.9l-1.2-5.5l11.2,1.6
	l12.8,1.8l0.7,1.9l0.7,1.8L904.7,287.9z M930.7,289.6l-0.6-1.7l-0.7-1.8l20.1,4.2l0.7,0.5L930.7,289.6z M956.2,291.9l-5.7-2.7
	l-0.4-5.5l5,2.7l3.3,1.8l0.2,2.3l0.1,2.1L956.2,291.9z M959.1,286.5l-0.7-0.6l0,0.4l-3-1.6l-5.2-2.8l2-8.4l11.5,5.4L959.1,286.5z
	 M960.3,292.5l-0.2-3.1l5.6,4.8l-5.4-1.3L960.3,292.5z M967.1,299.1l-0.4,2.2l-5.1-5.8l6,0.9L967.1,299.1z M960.2,287.5l4.7-7.7
	l2.5,2l7.8,6.2l-6.7,6.5l-0.5-0.7l-0.1,0.4L960.2,287.5z M975.6,309.2l-1-1.3l-6.5-5.3l0.4-2.2l0.5-3l2.8,3.8l3.9,5.2l-0.1,0.1
	l0.3,0.3L975.6,309.2z M972.6,299.8l-3-4.1l6-5.8l0.7-0.6l5,11.7l-0.4,0l0.5,0.6l-4.5,3.9L972.6,299.8z M984.4,317.6l-5.1-3.8
	l-2.4-2.9l0.3-2.7l7.7,7.4L984.4,317.6z M986.1,318.8l-0.4-0.3l0.8-2.9l0.5-0.5L986.1,318.8z M1005,317.8c2.1,2.2,5.5,8,5.9,11
	c0.1,1.2-1,4.9-1.9,7c-0.2,0.2-0.9,1-2.4,1c-1.7,0-3.8-1-6.2-3c-5.7-4.8-11.8-12.3-13.1-13.9l0,0l0.1-0.1l0,0l1.6-6.5l7-2.8
	C997.5,311.5,1003.3,315.9,1005,317.8z M995.8,305.2L995.8,305.2l1.2,0.3l-0.8,0.6L995.8,305.2z M997,303.3l-0.4,0.1l-3.2-0.9
	l-2-1.7l0.3-1.9l0.5-3.7l3.1,2.9l4.8,4.4L997,303.3z M998.4,306.4l0.5-0.4l2.6,0.8L998.4,306.4z M1000.7,304.6l0.9-0.7l0.2,0.2l0,0
	l1.7,1.5L1000.7,304.6z M1011,307.9l-0.2,0l-3.4-1.1l-2.5-2.1l1.3,0.4l8.2,2.5l0,0l1.8,0.4L1011,307.9z M1021.4,311.6l-2.3-1.5
	l4.7,0.4L1021.4,311.6z M1050.8,339c-1.1,0.5-3.4,0.3-7.8-3.3c-0.9-0.8-3.4-4.6-5.2-7.5c-1.2-1.9-2.2-3.5-2.8-4.2
	c-1.2-1.5-8.3-8-10.8-10.2l3.1-1.4l0-0.1l2-1c0.1,0,2.1-0.9,5.1,0.7c3.3,1.8,10.8,9,10.9,9l4,5.7l3.5,8.6
	C1052.7,335.9,1052.3,338.3,1050.8,339z M1064.9,340.4c-1,0.8-3.7-0.3-5-1.1l-9.3-13.3c0-0.1-0.1-0.1-0.1-0.2l-4.1-5.8
	c-0.3-0.3-7.8-7.5-11.3-9.4c-3.7-2-6.4-0.8-6.5-0.8l-2.2,1.1l-0.4,0.1l3.3-1.7l-2.7-0.2l-3.8-1h0v0l-7.7-2l4.5-9.1l7.9-0.7l0,0
	l0.3,0l1.8-0.2l-0.1-0.1l2-0.2c10.3,7.1,13.5,11.3,13.6,11.4c0.2,0.2,15.8,16.7,19.4,27.6C1065.6,337.8,1065.7,339.8,1064.9,340.4z"
	/>
</svg>
