<svg xmlns="http://www.w3.org/2000/svg" xmlns:xlink="http://www.w3.org/1999/xlink" version="1.1" id="Layer_1" x="0px" y="0px" viewBox="142 0 59 59" style="enable-background:new 0 0 196 59;" xml:space="preserve">
<g>
	<path style="fill-rule:evenodd;clip-rule:evenodd;fill:#0E68AF;" d="M149.012,55.179c-0.643-0.993-1.017-2.174-1.017-3.438V16.454   c0-1.051,0.259-2.044,0.715-2.92C170.641,30.632,171.558,34.82,149.012,55.179z"/>
	<path style="fill-rule:evenodd;clip-rule:evenodd;fill:#0089CD;" d="M190.767,57.999c-0.366,0.066-0.742,0.101-1.126,0.101h-35.287   c-0.383,0-0.759-0.035-1.124-0.1C167.584,38.844,176.903,38.832,190.767,57.999z"/>
	<path style="fill-rule:evenodd;clip-rule:evenodd;fill:#009CDF;" d="M195.285,13.535c0.456,0.876,0.715,1.869,0.715,2.92v35.287   c0,1.264-0.374,2.445-1.017,3.438C172.437,34.82,173.354,30.632,195.285,13.535z"/>
	<path style="fill-rule:evenodd;clip-rule:evenodd;fill:#254F99;" d="M154.354,10.095h15.642c-1.851,0.784-3.151,2.617-3.151,4.754   c0,3.576,2.091,5.528,3.058,7.275c0.156,0.385,0.247,0.768,0.247,1.16c0,5.232-13.692-9.256-17.427-12.976   C153.244,10.17,153.791,10.095,154.354,10.095z"/>
	<path style="fill-rule:evenodd;clip-rule:evenodd;fill:#68B8EB;" d="M175.157,6.147l14.748-5.211   c0.531-0.188,1.072-0.3,1.609-0.342c-2.282,4.752-10.365,22.974-12.108,18.04c-0.131-0.37-0.172-0.761-0.153-1.176   c0.329-1.97,1.65-4.507,0.459-7.878C178.999,7.565,177.163,6.269,175.157,6.147z"/>
</g>
</svg>